<svg width="1920" height="661" viewBox="0 0 1920 661" fill="none" xmlns="http://www.w3.org/2000/svg">
<g clip-path="url(#clip0_1277_2527)">
<rect width="1920" height="1631" transform="translate(0 -970)" fill="#F8EDE1"/>
<g filter="url(#filter0_i_1277_2527)">
<path fill-rule="evenodd" clip-rule="evenodd" d="M1403.27 -969.971H1487.75C1494.76 -970.341 1508.8 -967.308 1508.8 -952.22C1508.8 -937.132 1494.76 -935.024 1487.75 -935.856H1472.51C1468.27 -934.931 1459.77 -930.364 1459.77 -919.491C1459.77 -908.619 1468.27 -905.531 1472.51 -905.346H1662.86C1668.03 -905.808 1678.37 -902.628 1678.37 -886.208C1678.37 -869.788 1668.03 -867.162 1662.86 -867.902H1483.59C1477.68 -866.885 1465.87 -861.467 1465.87 -847.932C1465.87 -834.397 1477.68 -829.719 1483.59 -829.071H1749.28C1754.73 -828.147 1765.62 -822.748 1765.62 -808.547C1765.62 -794.346 1754.73 -790.426 1749.28 -790.241H1432.63C1425.8 -790.333 1412.13 -786.469 1412.13 -770.271C1412.13 -754.073 1425.8 -749.469 1432.63 -749.191H1508.8C1516.46 -748.822 1531.79 -744.365 1531.79 -729.499C1531.79 -714.632 1516.46 -710.546 1508.8 -710.361H1454.23C1436.12 -710.361 1432.63 -689.977 1432.63 -667.566C1432.63 -648 1416.12 -645 1406.04 -645.655H1268.24C1264.89 -643.733 1261.12 -640.195 1261.12 -634.5C1261.12 -628.076 1264.21 -624.335 1267.62 -622.348H1599.67C1607.77 -623.638 1623.96 -621.076 1623.96 -600.507C1623.96 -579.939 1607.77 -577.93 1599.67 -579.496H1518.83C1511.56 -581.247 1497.02 -579.883 1497.02 -560.42C1497.02 -540.957 1511.56 -540.515 1518.83 -542.727L1752.1 -542.727C1758.45 -543.28 1771.15 -540.57 1771.15 -525.31C1771.15 -510.049 1758.45 -508.999 1752.1 -510.381L1570 -510.381C1563.83 -510.289 1551.5 -507.008 1551.5 -494.623C1551.5 -482.237 1563.83 -479.878 1570 -480.247H1630.83C1638.75 -481.168 1654.58 -479.086 1654.58 -463.383C1654.58 -447.68 1638.75 -443.754 1630.83 -443.754H1364.01C1356.1 -444.768 1340.27 -442.482 1340.27 -425.231C1340.27 -407.98 1356.1 -407.169 1364.01 -408.92H1462.58C1470.03 -410.671 1484.94 -409.86 1484.94 -392.609C1484.94 -375.357 1470.03 -374.546 1462.58 -376.297H1314.9C1305.51 -376.297 1294.47 -374.086 1294.47 -360.815C1294.47 -347.545 1300.82 -346.44 1314.9 -346.44C1328.98 -346.44 1339.47 -341.74 1339.47 -330.958C1339.47 -320.176 1330.63 -316.029 1315.73 -316.029H1287.63C1284.21 -311.327 1282.12 -305.648 1282.12 -299.177C1282.12 -279.676 1303.62 -270.114 1316.33 -270.114H1419.22C1426.45 -270.114 1431.41 -265.149 1431.41 -254.315C1431.41 -245.647 1418.47 -244.082 1412 -244.383H1332.58C1326.41 -244.383 1314.07 -241.675 1314.07 -230.84C1314.07 -220.006 1326.41 -216.696 1332.58 -216.395H1726.34C1734.62 -216.395 1751.17 -211.88 1751.17 -193.823C1751.17 -175.766 1736.42 -169.145 1729.05 -168.092H1502.51C1493.03 -168.844 1474.07 -165.564 1474.07 -146.424C1474.07 -127.283 1493.03 -123.401 1502.51 -123.852H1692.05C1696.11 -124.003 1704.23 -121.776 1704.23 -111.664C1704.23 -101.552 1696.11 -100.529 1692.05 -101.281H1539.06C1534.25 -102.033 1524.62 -100.649 1524.62 -89.0924C1524.62 -77.5359 1534.25 -75.8506 1539.06 -76.4525H1595.92C1602.84 -76.603 1616.68 -72.6606 1616.68 -55.687C1616.68 -38.7134 1602.84 -36.2756 1595.92 -37.1785H1363.62C1353.69 -37.1785 1335.29 -25.8928 1335.29 -0.161499C1335.29 20.4235 1354.84 30.6859 1364.62 33.244H1546.49C1550.1 33.244 1571.08 34.824 1571.08 54.0096C1571.08 69.3582 1554.69 72.7439 1546.49 72.5181H1470.67C1464.43 72.7439 1451.94 76.8066 1451.94 91.2523C1451.94 105.698 1466.68 108.708 1474.06 108.406H1626.49C1640.03 108.406 1675.23 122.401 1675.23 155.806C1675.23 189.212 1640.48 193.049 1628.07 193.049C1615.66 193.049 1595.57 196.661 1595.57 226.906C1595.57 251.103 1614.68 258.958 1624.23 259.86H1775.75C1803.91 259.86 1835.12 266.823 1835.12 307.823C1835.12 344.323 1795.62 348.566 1780.26 348.566H1736.87C1731.9 348.566 1712.05 351.726 1712.05 372.266C1712.05 394 1725.01 397.595 1733.72 400.012C1734.86 400.326 1735.92 400.62 1736.87 400.931H1910.52C1937.6 400.931 1940.15 428.017 1938.05 441.56V3056.41C1938.05 3104.08 1938.12 3123.32 1938.12 3123.32C1659.18 3123.32 800.471 3123.83 310.728 3124.13L309.951 3124.13L281.914 3124.14C102.012 3124.25 -22.1762 3124.32 -39 3124.32L-39 3062.73V587.323C-39 587.323 159.415 587.145 186.493 587.145C208.155 587.145 212.62 575.252 212.62 568.823C212.47 562.051 207.071 550.579 186.493 550.579C161.12 550.579 154 535.823 154 527.556V484.671C154 461.558 173.255 456.983 182.882 457.585H339.745C345.611 458.488 357.345 457.134 357.345 444.494C357.345 431.854 345.611 429.597 339.745 430.048H200.292C197.735 429.747 192.62 427.791 192.62 422.374C192.62 416.957 197.735 414.399 200.292 413.797H343.849C347.609 414.248 355.131 412.984 355.131 404.317C355.131 395.649 347.609 393.483 343.849 393.483H99.58C95.2176 393.182 86.4927 390.142 86.4927 380.391C86.4927 370.64 95.2176 368.203 99.58 368.203H172.237C176.75 368.203 184.422 364.591 184.422 353.757C184.422 345.09 176.299 342.321 172.237 342.02H89.2004C66.1847 342.02 55.8051 328.477 55.8051 301.392C55.8051 279.723 76.2635 268.889 86.4927 266.18H306.621C322.621 266.18 334.621 262.323 334.621 251.823C334.621 241.323 329.121 234.129 306.621 234.129C284.121 234.129 261.836 223.566 261.836 192.146C261.836 160.727 283.121 147.906 303.121 147.906H440.382C443.842 148.358 450.761 147.004 450.761 137.975C450.761 128.946 443.842 127.291 440.382 127.592H255.067C246.794 128.194 230.246 124.793 230.246 106.375C230.246 87.9569 246.794 83.3523 255.067 83.3523H520.711C525.826 83.0514 536.055 79.8313 536.055 69.3582C536.055 58.885 525.826 54.4611 520.711 53.5582H368.176C358.849 51.6021 340.196 40.9183 340.196 13.8326C340.196 -13.2529 358.849 -26.6453 368.176 -29.9557H428.648C437.674 -29.0529 455.726 -31.6711 455.726 -49.3671C455.726 -67.063 436.081 -70.584 428.259 -70.1326H256.75C256.659 -70.1326 256.563 -70.1324 256.463 -70.1321L256.303 -70.1317C249.127 -70.1111 220.196 -70.0277 220.196 -105.795C220.196 -135.048 242.159 -140.555 253.14 -139.652H295.11C302.782 -138.599 318.125 -140.465 318.125 -156.355C318.125 -172.245 305.188 -176.519 298.72 -176.669H184.663C176.54 -176.669 164.62 -180.177 164.62 -193.177C164.62 -206.177 176.12 -210.978 184.663 -210.978H511.685C518.906 -211.579 533.347 -216.756 533.347 -232.646C533.347 -248.536 518.906 -254.315 511.685 -255.217H470.167C464.3 -254.315 452.567 -256.572 452.567 -272.823C452.567 -289.074 464.3 -291.332 470.167 -290.429H751.996C770.621 -290.429 775.621 -300.139 775.621 -310.177C775.621 -312.371 775.301 -314.311 774.732 -316.029H679.518C672.524 -315.66 658.536 -318.683 658.536 -333.722C658.536 -348.762 672.524 -350.863 679.518 -350.034H771.703C775.937 -350.955 784.404 -355.507 784.404 -366.345C784.404 -377.182 775.937 -380.26 771.703 -380.444H345.577C340.423 -379.983 330.115 -383.154 330.115 -399.52C330.115 -415.887 341.423 -418.504 346.577 -417.766H565.66C572.62 -417.766 583.33 -424.18 583.33 -437.672C583.33 -451.163 571.55 -455.826 565.66 -456.471H360.437C355.007 -457.393 344.147 -462.774 344.147 -476.929C344.147 -491.084 355.007 -494.991 360.437 -495.176H376.46C383.271 -495.083 396.891 -498.935 396.891 -515.081C396.891 -531.226 383.271 -535.815 376.46 -536.092H210.536C202.897 -536.46 187.62 -540.902 187.62 -555.72C187.62 -570.539 202.897 -574.612 210.536 -574.796H704.925C712.104 -574.059 726.46 -578.169 726.46 -600.507C726.46 -622.845 744.13 -624.375 752.965 -622.348H1197.81C1200.76 -624.429 1203.62 -628.195 1203.62 -633.5C1203.62 -640.812 1199.98 -644.244 1196.93 -645.655H1068.49C1060.12 -645.5 1044.11 -646.93 1044.11 -667.566C1044.11 -688.202 1060.36 -690.217 1068.49 -688.646H1229.61C1243.12 -688.646 1254.49 -696.5 1254.49 -715.5C1254.49 -737 1241.12 -742.535 1229.61 -742.535H965.731C959.361 -741.98 946.62 -744.698 946.62 -760.008C946.62 -775.319 959.361 -776.373 965.731 -774.986H1238.47C1244.66 -775.078 1257.03 -778.37 1257.03 -790.796C1257.03 -803.221 1244.66 -805.588 1238.47 -805.218H1077.35C1069.41 -804.294 1053.53 -806.383 1053.53 -822.137C1053.53 -837.892 1069.41 -841.83 1077.35 -841.83H1304.67C1312.61 -840.813 1328.49 -843.106 1328.49 -860.413C1328.49 -877.721 1312.61 -878.534 1304.67 -876.778H1205.79C1198.31 -875.021 1183.36 -875.835 1183.36 -893.142C1183.36 -910.449 1198.31 -911.263 1205.79 -909.506H1404.1C1413.52 -909.506 1424.6 -911.725 1424.6 -925.039C1424.6 -938.352 1418.23 -939.461 1404.1 -939.461C1389.98 -939.461 1379.45 -944.176 1379.45 -954.994C1379.45 -965.811 1388.31 -969.971 1403.27 -969.971ZM851.963 -316.029C851.739 -314.845 851.621 -313.564 851.621 -312.177C851.621 -300.677 863.621 -295.169 873.167 -295.169H1018.71C1028.12 -295.169 1038.62 -300.177 1038.62 -311.177C1038.62 -312.947 1038.48 -314.56 1038.21 -316.029H851.963Z" fill="#D7E2F1"/>
</g>
</g>
<defs>
<filter id="filter0_i_1277_2527" x="-39" y="-970" width="1977.62" height="4094.32" filterUnits="userSpaceOnUse" color-interpolation-filters="sRGB">
<feFlood flood-opacity="0" result="BackgroundImageFix"/>
<feBlend mode="normal" in="SourceGraphic" in2="BackgroundImageFix" result="shape"/>
<feColorMatrix in="SourceAlpha" type="matrix" values="0 0 0 0 0 0 0 0 0 0 0 0 0 0 0 0 0 0 127 0" result="hardAlpha"/>
<feOffset/>
<feGaussianBlur stdDeviation="27"/>
<feComposite in2="hardAlpha" operator="arithmetic" k2="-1" k3="1"/>
<feColorMatrix type="matrix" values="0 0 0 0 0.227451 0 0 0 0 0.407843 0 0 0 0 0.639216 0 0 0 0.28 0"/>
<feBlend mode="normal" in2="shape" result="effect1_innerShadow_1277_2527"/>
</filter>
<clipPath id="clip0_1277_2527">
<rect width="1920" height="1631" fill="white" transform="translate(0 -970)"/>
</clipPath>
</defs>
</svg>
