<svg width="828" height="350" viewBox="0 0 828 350" fill="none" xmlns="http://www.w3.org/2000/svg">
<g clip-path="url(#clip0_1353_2554)">
<rect width="828" height="1704" transform="translate(0 -2)" fill="#F8EDE1"/>
<g filter="url(#filter0_i_1353_2554)">
<path fill-rule="evenodd" clip-rule="evenodd" d="M692.686 160H606.269C606.269 160 582.869 160 582.869 179.976C582.869 199.953 604.952 198.021 604.952 198.021L623.869 197.976C632.869 197.976 637.869 206.976 637.869 214.976C637.869 222.976 631.69 229.664 623.952 229.664H503.253C496.869 229.664 482.369 233.476 482.369 247.976C482.369 265.476 497.369 266.546 503.253 266.546H542.244C542.244 266.546 559.869 264.261 559.869 278.476C559.869 290.154 543.369 290.154 543.369 290.154H305.986C297.869 290.154 287.369 298.901 287.369 311.476C287.369 324.052 301.369 330.808 305.986 330.808H480.565C480.565 330.808 502.369 329.808 502.369 349.976C502.369 368.107 480.565 368.107 480.565 368.107H348.164C343.369 368.107 328.136 368.472 328.136 385.421C328.136 395.378 333.22 399.848 338.489 401.841H300.948C294.576 400.382 281.832 401.483 281.832 417.55C281.832 433.616 271.477 436.573 266.3 436.042H99.9012C94.392 436.175 83.3686 440.976 83.3686 452.976C83.3686 464.976 93.8686 469.881 99.9012 469.881H143.616C148.528 470.08 161.869 475.476 161.869 490.476C161.869 504.476 148.528 509.377 143.616 509.31H134.059C129.369 509.31 116.369 512.476 116.369 527.476C116.369 543.976 130.369 547.149 134.059 547.149H217.682C222.369 547.149 235.369 552.976 235.369 565.976C235.369 577.976 223.869 584.988 218.682 584.988H94.0625C89.8686 584.988 76.8686 588.476 76.8686 602.476C76.8686 616.976 88.8686 621.832 93.3413 621.832L247.975 622.164H356.376C307.186 622.235 260.5 622.3 252.796 622.3C257.369 622.3 268.869 628 268.869 640C268.869 649 260.369 654.576 252.796 654.576H146.369C140.867 654.576 120.369 656.5 120.369 682C120.369 707.5 146.369 709.5 146.369 709.5H165.176C169.341 709.597 183.369 716 183.369 732.5C183.369 749 170.369 754.675 165.176 754.675H135.147C127.869 754.675 112.369 765 112.369 781.5C112.369 800.5 129.369 807.102 136.273 807.102H199.506C202.869 807.102 219.369 811 219.369 829.5C219.369 847.295 204.038 848.062 199.939 848.267L199.785 848.274C199.684 848.28 199.59 848.285 199.506 848.289H67.432C62.1039 848.289 46.3687 851.5 46.3687 868.5C46.3687 885.5 61.3687 888.78 67.432 888.78H118.774C120.869 888.78 135.369 891.5 135.369 906.5C135.369 920 120.369 921.862 118.774 921.862H73.3783C60.4983 921.862 46.7914 930.119 46.7914 950.353C46.7914 970.586 61.1423 977.389 75.6323 977.389C90.1222 977.389 93.6641 990.022 93.6641 996.784C93.6641 1003.55 85.9362 1006.03 75.6323 1006.03H-23.8687C-30.4562 1007.77 -43.6313 1014.75 -43.6313 1028.71C-43.6313 1034.99 -41.9712 1212.78 -41.8177 1212.84L-41.8169 9800.11C-44.6263 9812.91 -40.2475 9838.49 -0.257072 9838.49H873.706C885.137 9837.13 908 9826.74 908 9796.04C908 9787.6 904.976 9143.86 900.59 8210.4C889.026 5749.15 868 1273.72 868 1118.97C869.356 1110.25 867.709 1092.81 850.272 1092.81H755.968C742.869 1092.81 727.869 1078.31 727.869 1062.5C727.869 1049.27 739.369 1039.09 755.968 1039.09H783.915C793.805 1039.09 819.243 1037.01 819.243 1013.5C819.243 989.994 799.144 981.96 781.008 981.96H736.257C730.105 981.379 717.802 974 717.802 960.738C717.802 947.476 730.735 938.934 738.727 938.934C746.719 938.934 767.869 937.05 767.869 917.5C767.869 897.95 746.429 887.424 737.71 887.424H667.249C661.369 887.424 641.369 878 641.369 855.5C641.369 834.5 660.369 828.668 667.249 828.668H758.869C762.369 828.668 787.369 827 787.369 799C787.369 770 764.824 766.253 759.496 766.253H641.259C636.369 766.253 620.369 761 620.369 743.5C620.369 726 635.369 721.229 641.259 721.229H671.279C675.369 721.229 695.369 717.5 695.369 698C695.369 677 675.929 670.658 671.279 670.658H599.101C588.869 670.658 577.069 660.883 577.069 646.941C577.069 635.044 585.98 624.886 595.397 622.164H611.745C619.369 622.164 625.369 618.976 625.369 611.476C625.369 603.976 618.427 600.29 611.148 600.29C603.869 600.29 596.869 596.976 596.869 588.976C596.869 580.976 605.369 578.815 611.148 578.815H717.66C717.66 578.815 734.869 578.976 734.869 564.476C734.869 549.976 722.369 548.351 715.66 548.351H646.572C641.369 548.351 629.369 542.976 629.369 530.976C629.369 518.976 640.369 513.296 645.869 513.296H775.621C781.329 513.296 793.869 509.476 793.869 495.976C793.869 482.476 780.869 477.048 774.621 477.048H694.843C688.369 477.048 676.369 472.476 676.369 459.976C676.369 445.977 687.869 442.662 694.843 442.662H754.143C759.869 442.662 774.621 437.77 774.621 422.976C774.621 405.476 758.369 401.841 753.143 401.841H637.084C642.664 399.656 647.394 394.911 647.394 385.421C647.394 362.976 654.869 354.235 665.147 354.235H721.983C730.369 354.235 745.369 347.476 745.369 333.976C745.369 316.976 730.369 311.34 721.983 311.34H656.869C656.869 311.34 633.869 310.84 633.869 292.976C633.869 273.336 656.869 273.836 656.869 273.836H762.63C766.869 273.836 783.869 271.976 783.869 254.476C783.869 233.976 768.869 233.081 762.63 233.081H680.168C674.869 233.081 666.869 227.976 666.869 214.976C666.869 206.046 672.869 198.021 680.168 198.021H692.686C698.452 198.705 713.369 193.476 713.369 179.976C713.369 164.476 698.369 160 692.686 160Z" fill="#DDE6F1"/>
</g>
</g>
<defs>
<filter id="filter0_i_1353_2554" x="-43.6313" y="160" width="951.631" height="9678.49" filterUnits="userSpaceOnUse" color-interpolation-filters="sRGB">
<feFlood flood-opacity="0" result="BackgroundImageFix"/>
<feBlend mode="normal" in="SourceGraphic" in2="BackgroundImageFix" result="shape"/>
<feColorMatrix in="SourceAlpha" type="matrix" values="0 0 0 0 0 0 0 0 0 0 0 0 0 0 0 0 0 0 127 0" result="hardAlpha"/>
<feOffset/>
<feGaussianBlur stdDeviation="27"/>
<feComposite in2="hardAlpha" operator="arithmetic" k2="-1" k3="1"/>
<feColorMatrix type="matrix" values="0 0 0 0 0.227451 0 0 0 0 0.407843 0 0 0 0 0.639216 0 0 0 0.28 0"/>
<feBlend mode="normal" in2="shape" result="effect1_innerShadow_1353_2554"/>
</filter>
<clipPath id="clip0_1353_2554">
<rect width="828" height="1704" fill="white" transform="translate(0 -2)"/>
</clipPath>
</defs>
</svg>
