<svg width="1920" height="761" viewBox="0 0 1920 761" fill="none" xmlns="http://www.w3.org/2000/svg">
<g clip-path="url(#clip0_1588_2716)">
<rect width="1920" height="1631" fill="#F8EDE1"/>
<g filter="url(#filter0_i_1588_2716)">
<path fill-rule="evenodd" clip-rule="evenodd" d="M517.438 412.961H355.03C345.631 413.457 326.833 409.391 326.833 389.159C326.833 368.926 345.631 366.1 355.03 367.216H478.911C484.6 365.976 495.978 359.852 495.978 345.272C495.978 330.693 484.6 326.553 478.911 326.305H266.267C259.341 326.925 245.49 322.66 245.49 300.642C245.49 278.625 260.685 275.104 267.611 276.096H392.023C401.376 276.096 415.768 267.467 415.768 249.318C415.768 231.168 399.938 224.895 392.023 224.028H286.236C278.94 222.788 264.346 215.548 264.346 196.506C264.346 177.464 278.94 172.207 286.236 171.959H307.77C316.922 172.083 335.225 166.901 335.225 145.181C335.225 123.461 316.922 117.288 307.77 116.916H214.794C204.529 116.42 184 110.444 184 90.5095C184 70.5748 204.529 65.0953 214.794 64.8473H619.173C628.819 65.8391 648.112 60.3099 648.112 30.259C648.112 0.208155 671.858 -1.8498 683.73 0.877589H1519.56C1531.5 0.877589 1559 8 1559 39C1559 68 1531 74.5247 1519.56 74.5247H1494.5C1483.57 74.5247 1467.5 84 1467.5 105.5C1467.5 123.5 1479 137.043 1495 137.043H1632.44C1643.5 137.043 1667 150 1667 178.5C1667 208.5 1644.08 216.136 1633.44 216.136H1595.88C1586 216.136 1569.5 221 1569.5 239.5C1569.5 258 1588 262.997 1595.88 262.997H1698.33C1708 262.997 1728.5 271 1728.5 290.5C1728.5 310 1710 317.883 1698.33 317.883H1498.88C1483 317.883 1472.5 325.5 1472.5 337C1472.5 348.5 1479.95 358.05 1498.88 358.05C1517.8 358.05 1530.5 368.5 1530.5 386C1530.5 403.5 1520.02 412.961 1499.99 412.961H1395.24C1379.81 418.155 1366.52 431.103 1366.52 449.074C1366.52 472.746 1392.62 484.352 1408.05 484.352H1662.95C1671.71 484.352 1690.5 493.5 1690.5 515C1690.5 534.5 1671 543.586 1662.95 543.586H1557.77C1550.28 543.586 1535.31 550.5 1535.31 567C1535.31 583.5 1550.28 589.195 1557.77 589.56H1775.75C1785.79 589.56 1806 597.081 1806 619C1806 640.919 1788.5 648.193 1779.03 648.193H1687.04C1676 648.193 1652.53 654.766 1652.53 678C1652.53 701.234 1675 709.43 1687.04 709.43H1720.43C1728.83 709.247 1750.5 723 1750.5 748.5C1750.5 774 1730.5 787.103 1720.43 787.103H1605.45C1593.4 787.103 1572 795.013 1572 820C1572 844.987 1595.5 852.586 1606.66 852.586H1787.53C1787.53 852.586 1836 856 1836 902C1836 935 1808.52 950.566 1793.45 950.566H1723C1723 950.566 1696.5 949.066 1696.5 976C1696.5 1002.93 1723 1002.5 1723 1002.5H1755C1769.5 1002.5 1782 1011 1782 1026C1782 1041 1771 1050 1755 1050H1662C1662 1050 1613.5 1045.5 1613.5 1092C1613.5 1138.5 1662 1137.67 1662 1137.67H1808.72C1842.9 1137.67 1880.78 1142.12 1880.78 1191.88C1880.78 1236.19 1832.84 1241.34 1814.2 1241.34H1761.52C1755.49 1241.34 1731 1243.5 1731 1268.5C1731 1295 1755 1298.9 1761.52 1298.9H1950.46C1983.33 1298.9 1986.43 1331.78 1983.87 1348.22V14980.9C1983.87 15038.8 1983.96 15062.1 1983.96 15062.1C1645.37 15062.1 804.851 15062.7 325.482 15063.1C134.252 15063.2 0.494713 15063.3 -21 15063.3L-21 14988.6V1445.16C-21 1445.16 146.132 1444.94 179 1444.94C183.73 1444.94 235.5 1438 235.5 1386.5C235.5 1335 192.403 1327.86 179 1327.86H138.09C137.904 1327.85 137.692 1327.84 137.454 1327.82C130.885 1327.42 105 1325.82 105 1298C105 1269.18 132.794 1269.18 138.09 1269.18H169.285C169.285 1269.18 190 1264.5 190 1245C190 1224 174.215 1217.76 169.285 1217.4H70.4903C52 1217.4 24.5 1200.5 24.5 1166C24.5 1131.5 56.5 1118.34 69.2035 1118.34H173.407C191.5 1118.34 209 1107.5 209 1085.5C209 1063.5 191 1052.43 171.407 1052.43C151.814 1052.43 128.5 1041.5 128.5 1016.5C128.5 991.5 147.881 978.769 172.158 978.769L229.774 978C229.774 978 265.5 976 265.5 947.5C265.5 919 234.5 915 229.774 915H152.5C136.046 915 93.5 900 93.5 855C93.5 810 128 794.87 151.126 794.87H212.531C223.5 794.87 243 788.5 243 765C243 741.5 221.5 735.101 212.058 735.101H92.5C84.8308 735.101 43 727.5 43 682.5C43 637.5 80 632.136 92.5 632.136H277C292.5 632.136 317 628 317 601.5C317 569.902 289.421 570.274 278.736 570.419C278.093 570.427 277.511 570.435 277 570.435H242C234 570.435 207.5 561 207.5 529C207.5 499 233 487.694 242 487.694H513.029C535.636 487.694 549 467 549 451C549 424.765 528.335 415.744 517.438 412.961Z" fill="#D7E2F1"/>
</g>
</g>
<defs>
<filter id="filter0_i_1588_2716" x="-21" y="0" width="2005.57" height="15063.3" filterUnits="userSpaceOnUse" color-interpolation-filters="sRGB">
<feFlood flood-opacity="0" result="BackgroundImageFix"/>
<feBlend mode="normal" in="SourceGraphic" in2="BackgroundImageFix" result="shape"/>
<feColorMatrix in="SourceAlpha" type="matrix" values="0 0 0 0 0 0 0 0 0 0 0 0 0 0 0 0 0 0 127 0" result="hardAlpha"/>
<feOffset/>
<feGaussianBlur stdDeviation="27"/>
<feComposite in2="hardAlpha" operator="arithmetic" k2="-1" k3="1"/>
<feColorMatrix type="matrix" values="0 0 0 0 0.227451 0 0 0 0 0.407843 0 0 0 0 0.639216 0 0 0 0.28 0"/>
<feBlend mode="normal" in2="shape" result="effect1_innerShadow_1588_2716"/>
</filter>
<clipPath id="clip0_1588_2716">
<rect width="1920" height="1631" fill="white"/>
</clipPath>
</defs>
</svg>
