<svg width="773" height="794" viewBox="0 0 773 794" fill="none" xmlns="http://www.w3.org/2000/svg">
<path d="M423.527 444.75C431.095 444.751 435.082 445.584 437.415 457.25C438.804 464.194 431.86 467.479 424.916 467.666C386.839 468.693 367.158 470.618 358.903 470.347C348.586 470.01 339.504 471.138 336.436 459.911C333.431 448.917 342.281 447.59 347.353 447.59L423.527 444.75Z" fill="#516F96"/>
<path d="M98.6181 436.505C100.008 424.005 107.981 419.839 113.895 419.839C120.84 419.839 126.394 424.005 126.394 434.421C126.394 444.838 120.839 450.238 113.895 451.782C107.646 453.17 97.1512 449.698 98.6181 436.505Z" fill="#516F96"/>
<path d="M548.941 436.505C550.331 424.005 558.304 419.839 564.218 419.839C571.163 419.839 576.718 424.005 576.718 434.421C576.718 444.838 571.162 450.238 564.218 451.782C557.969 453.17 547.474 449.698 548.941 436.505Z" fill="#516F96"/>
<path fill-rule="evenodd" clip-rule="evenodd" d="M108.967 458.643C104.338 458.412 94.1067 460.171 90.218 469.059C85.3571 480.17 81.1907 501.696 80.4963 512.112C79.8019 522.529 83.9683 535.028 97.1621 534.333C107.717 533.778 112.208 529.01 113.134 526.695C113.597 528.778 116.05 533.222 122.161 534.333C129.799 535.722 139.521 535.028 144.382 519.056C149.243 503.085 156.881 484.336 163.825 477.392C170.769 470.448 173.547 470.448 175.63 471.837C177.714 473.226 177.019 480.864 172.853 491.28C168.686 501.696 163.131 524.612 170.075 530.861C177.019 537.111 197.157 539.889 211.045 512.112C211.277 517.668 215.35 529.75 229.794 533.639C244.238 537.528 257.57 527.852 262.431 522.529C259.885 532.945 252.154 558.915 241.599 579.47C228.405 605.163 216.957 595.89 215.906 594.747C214.444 593.156 208.267 585.72 217.295 572.526C224.517 561.971 220.304 554.703 217.295 552.388C214.054 548.453 205.629 542.944 197.851 552.388C188.13 564.193 190.213 585.72 195.768 594.052C201.323 602.385 217.295 615.579 244.377 605.163C267.687 596.197 275.049 573.342 284.175 545.009C285.652 540.425 287.175 535.697 288.819 530.861C298.263 503.085 303.864 483.642 305.484 477.392C307.568 471.837 309.095 460.31 298.54 458.643C285.347 456.56 279.097 462.809 277.708 472.531C274.931 467.902 265.764 458.643 251.321 458.643C233.266 458.643 216.6 468.365 210.351 497.53C209.193 501.233 206.184 509.613 203.407 513.501C199.935 518.362 196.463 519.751 195.074 518.362C193.685 516.973 192.296 515.584 196.463 505.863L196.526 505.715C200.74 495.884 211.663 470.399 196.463 460.726C181.186 451.005 161.742 470.448 158.965 473.92V468.365C159.196 464.43 156.881 456.976 145.771 458.643C134.334 460.359 131.374 468.196 129.909 472.072C129.595 472.903 129.35 473.552 129.105 473.92C128.796 474.384 128.074 476.807 127.024 480.333C123.356 492.654 115.677 518.44 107.578 521.14C105.727 521.603 102.856 520.029 106.19 510.029C109.523 500.03 115.448 481.79 117.995 473.92C120.309 468.365 121.744 457.532 108.967 458.643ZM263.331 476.473C261.245 473.083 253.499 468.917 245.276 475.084C234.166 483.417 230.621 493.915 229.232 503.637C227.843 513.359 233.471 528.553 248.748 518.137C264.025 507.721 268.886 485.5 263.331 476.473Z" fill="#516F96"/>
<path fill-rule="evenodd" clip-rule="evenodd" d="M540.54 468.649C544.429 459.761 554.66 458.002 559.289 458.233C572.066 457.122 570.631 467.955 568.317 473.51C565.771 481.38 559.845 499.62 556.512 509.62C553.179 519.619 556.049 521.193 557.901 520.73C565.999 518.031 573.678 492.244 577.347 479.923L577.347 479.923L577.347 479.923C578.397 476.397 579.118 473.974 579.427 473.51C579.672 473.143 579.918 472.494 580.231 471.663C581.696 467.786 584.656 459.949 596.093 458.233C607.204 456.567 609.518 464.02 609.287 467.955V473.51C612.064 470.038 631.508 450.595 646.785 460.317C661.985 469.99 651.062 495.474 646.848 505.306L646.785 505.453C642.618 515.175 644.007 516.564 645.396 517.952C646.785 519.341 650.257 517.952 653.729 513.092C656.507 509.203 659.516 500.824 660.673 497.12C666.923 467.955 683.588 458.233 701.643 458.233C716.087 458.233 725.253 467.492 728.03 472.122C729.419 462.4 735.669 456.15 748.863 458.233C759.418 459.9 757.89 471.427 755.807 476.982C754.186 483.232 748.585 502.675 739.141 530.452C737.497 535.287 735.974 540.015 734.497 544.599C732.706 550.161 730.982 555.512 729.193 560.588C737.258 562.033 746.115 560.221 764.068 549.693C766.845 548.064 770.318 546.916 771.707 548.999C772.568 550.291 771.076 552.769 766.845 555.943C766.576 556.145 766.168 556.524 765.621 557.033C761.31 561.047 748.305 573.154 725.362 570.654C718.741 586.554 710.285 598.759 694.699 604.753C667.617 615.169 651.646 601.976 646.09 593.643C640.573 585.367 640.998 568.136 653.469 559.591C658.186 555.48 672.932 547.772 698.1 551.776C699.755 552.04 701.319 552.331 702.801 552.643C707.562 539.875 711.238 528.319 712.753 522.119C707.893 527.443 694.56 537.118 680.116 533.229C665.673 529.341 661.599 517.258 661.367 511.703C647.479 539.479 627.341 536.701 620.397 530.452C613.453 524.202 619.009 501.287 623.175 490.871C627.341 480.454 628.036 472.816 625.953 471.427C623.869 470.038 621.092 470.038 614.148 476.982C607.204 483.926 599.565 502.675 594.704 518.647C589.843 534.618 580.122 535.313 572.483 533.924C566.372 532.813 563.919 528.368 563.456 526.285C562.53 528.6 558.039 533.368 547.484 533.924C534.291 534.618 530.124 522.119 530.819 511.703C531.513 501.287 535.679 479.76 540.54 468.649ZM698.265 564.315C690.767 562.997 684.191 562.82 678.524 563.421C678.38 563.44 678.232 563.459 678.081 563.478C677.338 563.573 676.508 563.679 675.615 563.809C670.205 564.683 665.725 566.288 662.164 568.248C659.808 569.797 657.767 571.875 656.433 574.692C651.203 585.733 663.012 592.494 665.873 594.132L665.877 594.134C666.016 594.214 666.134 594.282 666.228 594.337C668.238 595.524 682.126 600.385 691.921 579.06C694.107 574.302 696.241 569.31 698.265 564.315ZM695.598 474.674C703.821 468.507 711.567 472.674 713.653 476.063C719.208 485.09 714.347 507.311 699.07 517.727C683.794 528.144 678.165 512.949 679.554 503.227C680.943 493.506 684.488 483.007 695.598 474.674Z" fill="#516F96"/>
<path fill-rule="evenodd" clip-rule="evenodd" d="M127.506 385.129C126.641 384.514 124.868 384.424 122.174 386.538C107.378 398.148 83.8985 391.368 69.5382 386.447C52.5351 380.62 27.2715 373.173 5.43013 404.562C3.87004 406.804 1.67362 412.2 4.04162 414.284C5.79383 415.825 10.6612 413.986 12.963 411.84C17.0835 407.999 30.1815 399.649 51.6213 403.437C50.7899 405.215 49.9749 407.416 49.1745 410.117L14.3905 520C13.0017 525.092 13.0017 535.138 24.1122 534.583C37.6153 533.907 39.9589 527.324 43.2696 518.025C43.364 517.759 43.4592 517.492 43.5555 517.222C46.3331 509.445 65.6087 450.856 76.2562 414.284C76.711 412.722 77.0499 411.368 77.2528 410.179C112.632 417.125 123.78 399.512 124.992 397.202C126.568 394.203 129.953 386.867 127.506 385.129Z" fill="#516F96"/>
<path fill-rule="evenodd" clip-rule="evenodd" d="M576.093 385.129C575.228 384.514 573.456 384.424 570.761 386.538C555.965 398.148 532.486 391.368 518.125 386.447C501.122 380.62 475.859 373.173 454.017 404.562C452.457 406.804 450.261 412.2 452.629 414.284C454.381 415.825 459.248 413.986 461.55 411.84C465.671 407.999 478.769 399.649 500.208 403.437C499.377 405.215 498.562 407.416 497.762 410.117L462.978 520C461.589 525.092 461.589 535.138 472.699 534.583C486.202 533.907 488.546 527.324 491.857 518.025C491.951 517.759 492.046 517.492 492.143 517.222C494.92 509.445 514.196 450.856 524.843 414.284C525.298 412.722 525.637 411.368 525.84 410.179C561.219 417.125 572.367 399.512 573.58 397.202C575.155 394.203 578.54 386.867 576.093 385.129Z" fill="#516F96"/>
<path d="M424.14 438.506C431.709 438.506 435.696 439.339 438.029 451.005C439.417 457.949 432.473 461.234 425.529 461.421C387.453 462.449 367.771 464.373 359.517 464.103C349.2 463.765 340.118 464.893 337.049 453.666C334.044 442.672 342.895 441.345 347.967 441.345L424.14 438.506Z" fill="#6E97CB"/>
<path d="M99.2298 430.26C100.62 417.76 108.593 413.594 114.507 413.594C121.452 413.594 127.006 417.76 127.006 428.176C127.006 438.592 121.451 443.993 114.507 445.536C108.258 446.925 97.7629 443.453 99.2298 430.26Z" fill="#6E97CB"/>
<path d="M549.555 430.26C550.944 417.76 558.917 413.594 564.832 413.594C571.776 413.594 577.331 417.76 577.331 428.176C577.331 438.592 571.776 443.993 564.832 445.536C558.582 446.925 548.088 443.453 549.555 430.26Z" fill="#6E97CB"/>
<path fill-rule="evenodd" clip-rule="evenodd" d="M109.577 452.398C104.948 452.166 94.717 453.926 90.8284 462.814C85.9675 473.925 81.8011 495.451 81.1067 505.867C80.4123 516.283 84.5787 528.783 97.7724 528.088C108.327 527.533 112.818 522.765 113.744 520.45C114.207 522.533 116.661 526.977 122.771 528.088C130.41 529.477 140.132 528.783 144.992 512.811C149.853 496.84 157.492 478.091 164.436 471.147C171.38 464.203 174.158 464.203 176.241 465.592C178.324 466.98 177.63 474.619 173.463 485.035C169.297 495.451 163.741 518.367 170.685 524.616C177.63 530.866 197.767 533.644 211.655 505.867C211.887 511.423 215.961 523.505 230.404 527.394C244.848 531.283 258.181 521.607 263.042 516.283C260.495 526.699 252.764 552.67 242.209 573.225C229.016 598.918 217.567 589.645 216.516 588.502C215.054 586.911 208.878 579.474 217.905 566.281C225.127 555.726 220.914 548.458 217.905 546.143C214.665 542.208 206.239 536.699 198.462 546.143C188.74 557.948 190.823 579.474 196.379 587.807C201.934 596.14 217.905 609.334 244.987 598.918C268.297 589.952 275.659 567.097 284.786 538.764C286.262 534.179 287.785 529.452 289.429 524.616C298.873 496.84 304.475 477.397 306.095 471.147C308.178 465.592 309.706 454.065 299.151 452.398C285.957 450.315 279.707 456.564 278.319 466.286C275.541 461.657 266.375 452.398 251.931 452.398C233.877 452.398 217.211 462.12 210.961 491.285C209.804 494.988 206.795 503.367 204.017 507.256C200.545 512.117 197.073 513.506 195.684 512.117C194.295 510.728 192.906 509.339 197.073 499.618L197.136 499.47C201.35 489.639 212.273 464.154 197.073 454.481C181.796 444.759 162.353 464.203 159.575 467.675V462.12C159.806 458.185 157.492 450.731 146.381 452.398C134.944 454.113 131.984 461.951 130.52 465.827C130.206 466.658 129.961 467.307 129.715 467.675C129.406 468.138 128.685 470.562 127.635 474.088C123.966 486.409 116.287 512.195 108.189 514.895C106.337 515.358 103.467 513.784 106.8 503.784C110.133 493.785 116.059 475.545 118.605 467.675C120.919 462.12 122.354 451.287 109.577 452.398ZM263.941 470.228C261.855 466.838 254.109 462.672 245.887 468.839C234.776 477.172 231.231 487.67 229.842 497.392C228.453 507.114 234.082 522.308 249.359 511.892C264.636 501.476 269.496 479.255 263.941 470.228Z" fill="#6E97CB"/>
<path fill-rule="evenodd" clip-rule="evenodd" d="M541.153 462.404C545.042 453.516 555.273 451.757 559.902 451.988C572.679 450.877 571.244 461.71 568.93 467.265C566.384 475.135 560.458 493.375 557.125 503.374C553.792 513.374 556.662 514.948 558.514 514.485C566.612 511.785 574.291 485.999 577.96 473.678L577.96 473.678L577.96 473.678C579.01 470.152 579.731 467.729 580.04 467.265C580.285 466.898 580.53 466.249 580.844 465.418C582.309 461.541 585.269 453.704 596.706 451.988C607.816 450.322 610.131 457.775 609.9 461.71V467.265C612.677 463.793 632.121 444.35 647.398 454.071C662.598 463.744 651.675 489.229 647.461 499.061L647.398 499.208C643.231 508.93 644.62 510.318 646.009 511.707C647.398 513.096 650.87 511.707 654.342 506.846C657.119 502.958 660.128 494.579 661.286 490.875C667.535 461.71 684.201 451.988 702.256 451.988C716.7 451.988 725.866 461.247 728.643 465.876C730.032 456.155 736.282 449.905 749.476 451.988C760.031 453.655 758.503 465.182 756.42 470.737C754.799 476.987 749.198 496.43 739.754 524.207C738.11 529.042 736.587 533.77 735.11 538.354C733.319 543.916 731.595 549.267 729.806 554.343C737.87 555.788 746.727 553.975 764.679 543.448C767.457 541.819 770.929 540.67 772.318 542.753C773.179 544.045 771.687 546.524 767.456 549.697C767.187 549.9 766.78 550.279 766.233 550.788C761.921 554.802 748.916 566.909 725.975 564.409C719.354 580.309 710.898 592.513 695.312 598.508C668.23 608.924 652.259 595.731 646.703 587.398C641.187 579.124 641.611 561.899 654.073 553.351C658.784 549.242 673.531 541.525 698.711 545.531C700.367 545.795 701.931 546.086 703.413 546.398C708.175 533.63 711.851 522.074 713.366 515.874C708.506 521.198 695.173 530.873 680.729 526.984C666.286 523.096 662.212 511.013 661.98 505.458C648.092 533.234 627.954 530.456 621.01 524.207C614.066 517.957 619.621 495.042 623.788 484.625C627.954 474.209 628.649 466.571 626.565 465.182C624.482 463.793 621.705 463.793 614.761 470.737C607.816 477.681 600.178 496.43 595.317 512.402C590.456 528.373 580.735 529.067 573.096 527.679C566.985 526.568 564.532 522.123 564.069 520.04C563.143 522.355 558.652 527.123 548.097 527.679C534.903 528.373 530.737 515.874 531.431 505.458C532.126 495.042 536.292 473.515 541.153 462.404ZM698.878 558.07C691.385 556.753 684.812 556.575 679.148 557.175C679.001 557.194 678.849 557.213 678.694 557.233C677.944 557.328 677.106 557.435 676.205 557.568C670.81 558.441 666.34 560.042 662.786 561.996C660.427 563.546 658.382 565.626 657.046 568.446C651.816 579.488 663.624 586.249 666.486 587.887C666.541 587.918 666.592 587.948 666.64 587.975C666.716 588.019 666.783 588.058 666.841 588.092C668.851 589.279 682.739 594.14 692.534 572.815C694.72 568.057 696.854 563.065 698.878 558.07ZM696.211 468.429C704.434 462.262 712.18 466.428 714.266 469.818C719.821 478.845 714.96 501.066 699.683 511.482C684.406 521.898 678.778 506.704 680.167 496.982C681.556 487.261 685.101 476.762 696.211 468.429Z" fill="#6E97CB"/>
<path fill-rule="evenodd" clip-rule="evenodd" d="M128.118 378.884C127.253 378.269 125.481 378.179 122.786 380.293C107.99 391.903 84.5108 385.123 70.1505 380.202C53.1474 374.375 27.8838 366.928 6.04248 398.317C4.48239 400.559 2.28597 405.955 4.65397 408.038C6.40618 409.58 11.2736 407.741 13.5753 405.595C17.6959 401.754 30.7938 393.404 52.2336 397.192C51.4022 398.97 50.5873 401.171 49.7868 403.872L15.0028 513.755C13.614 518.847 13.614 528.893 24.7245 528.337C38.2276 527.662 40.5712 521.079 43.882 511.779C43.9764 511.514 44.0716 511.247 44.1678 510.977C46.9455 503.2 66.221 444.611 76.8686 408.039C77.3233 406.477 77.6623 405.123 77.8651 403.933C113.244 410.88 124.392 393.266 125.605 390.957C127.18 387.958 130.565 380.622 128.118 378.884Z" fill="#6E97CB"/>
<path fill-rule="evenodd" clip-rule="evenodd" d="M576.707 378.884C575.842 378.269 574.07 378.179 571.375 380.293C556.579 391.903 533.1 385.123 518.74 380.202C501.736 374.375 476.473 366.928 454.632 398.317C453.071 400.559 450.875 405.955 453.243 408.038C454.995 409.58 459.863 407.741 462.164 405.595C466.285 401.754 479.383 393.403 500.824 397.192C499.992 398.97 499.177 401.171 498.377 403.872L463.593 513.755C462.204 518.847 462.204 528.893 473.315 528.337C486.818 527.662 489.161 521.079 492.472 511.779C492.566 511.514 492.662 511.247 492.758 510.977C495.535 503.2 514.811 444.611 525.459 408.039C525.913 406.477 526.252 405.123 526.455 403.934C561.833 410.879 572.981 393.266 574.194 390.957C575.769 387.958 579.154 380.622 576.707 378.884Z" fill="#6E97CB"/>
<path fill-rule="evenodd" clip-rule="evenodd" d="M381.951 181.088C378.933 180.611 372.038 181.374 368.606 188.237L351.493 245.904C350.54 249.399 350.54 256.294 358.165 255.913C367.433 255.45 369.041 250.931 371.313 244.549C371.378 244.367 371.443 244.183 371.509 243.998C373.137 239.441 378.09 222.403 384.052 201.898C385.073 198.384 386.124 194.769 387.193 191.096C388.303 187.284 388.147 182.066 381.951 181.088ZM353.876 262.585C349.817 262.585 344.344 265.445 343.391 274.023C342.384 283.079 349.587 285.462 353.876 284.508C358.642 283.449 362.454 279.743 362.454 272.594C362.454 265.445 358.642 262.585 353.876 262.585Z" fill="#9EB6D5"/>
<path fill-rule="evenodd" clip-rule="evenodd" d="M426.713 181.088C423.695 180.611 416.8 181.374 413.369 188.237L396.255 245.904C395.302 249.399 395.302 256.294 402.927 255.913C412.195 255.45 413.803 250.931 416.076 244.549C416.14 244.367 416.206 244.183 416.272 243.998C417.899 239.441 422.853 222.403 428.814 201.898C429.836 198.384 430.887 194.769 431.956 191.096C433.066 187.284 432.909 182.066 426.713 181.088ZM398.775 262.585C394.715 262.585 389.243 265.445 388.289 274.023C387.283 283.079 394.485 285.462 398.775 284.508C403.541 283.449 407.353 279.743 407.353 272.594C407.353 265.445 403.541 262.585 398.775 262.585Z" fill="#9EB6D5"/>
<path fill-rule="evenodd" clip-rule="evenodd" d="M123.682 188.237C127.113 181.374 134.008 180.611 137.026 181.088C143.222 182.066 143.379 187.284 142.269 191.096C139.258 201.438 134.925 216.267 130.738 230.504C131.272 230.34 131.816 230.178 132.372 230.017C141.588 227.342 149.098 227.198 155.149 228.396C159.633 213.124 164.725 195.962 166.577 190.143C169.246 181.755 176.585 180.929 179.921 181.565C187.07 182.926 186.066 190.143 185.163 193.003C181.678 204.042 176.093 222.589 171.816 237.182C174.719 240.068 176.306 242.735 176.885 243.708C176.96 243.834 177.018 243.932 177.06 243.998C177.581 244.819 177.537 245.428 177.06 245.904C176.583 246.381 175.338 246.381 174.319 245.764C172.875 244.89 171.442 244.088 170.015 243.359C168.134 249.849 166.694 254.968 166.1 257.343C163.717 266.874 161.811 274.84 166.1 275.453C169.436 275.93 172.772 267.351 176.108 258.772C179.921 235.896 193.742 232.083 202.321 231.607C211.56 231.093 220.968 236.668 216.619 249.717C212.987 260.611 200.567 263.723 194.177 264.818C194.049 273.656 197.405 279.61 206.133 276.883C210.627 275.479 215.23 269.276 218.872 262.759C219.483 257.133 220.822 251.27 222.239 246.381C226.846 230.495 236.251 198.531 238.92 190.143C241.589 181.755 248.929 180.929 252.265 181.565C259.413 182.926 258.41 190.143 257.507 193.003C251.788 211.113 240.42 249.435 238.443 257.343C236.06 266.874 234.154 274.84 238.443 275.453C241.54 275.895 244.636 268.537 247.733 260.618C248.419 255.667 249.597 250.652 250.835 246.381C253.031 238.811 255.256 230.512 257.272 222.99L257.272 222.989L257.273 222.988L257.273 222.986C259.488 214.725 261.451 207.401 262.848 203.011C265.517 194.623 272.856 193.797 276.192 194.432C283.341 195.794 282.338 203.011 281.435 205.871C275.715 223.981 269.016 249.435 267.039 257.343C264.656 266.875 262.75 274.84 267.039 275.453C270.191 275.903 273.343 268.272 276.495 260.193C276.534 259.424 276.592 258.633 276.669 257.819C278.621 237.326 295.733 232.083 304.788 232.56C313.831 233.036 318.609 240.185 318.609 245.428C322.422 246.953 322.626 253.053 321.945 257.819C321.129 263.534 318.565 271.345 311.858 277.363C313.701 278.531 316.637 278.711 319.562 275.981C325.422 270.511 328.31 263.299 329.76 259.68C330.078 258.884 330.328 258.262 330.523 257.87C330.666 257.586 330.797 257.304 330.924 257.031L330.926 257.028L330.926 257.027C331.652 255.47 332.239 254.21 333.86 254.534C335.766 254.916 335.419 256.917 334.336 259.3C331.953 264.543 327.664 273.738 321.468 278.84C316.824 282.665 311.851 281.566 308.824 279.751C308.595 279.909 308.361 280.065 308.124 280.219C299.035 286.127 280.137 287.515 276.907 268.585C272.623 277.11 266.428 287.327 254.171 283.555C249.428 282.096 247.502 277.08 247.173 270.79C242.928 278.748 236.788 287.005 225.575 283.555C220.894 282.115 218.956 277.21 218.59 271.034C213.895 277.834 208.439 282.011 202.797 283.079C185.163 286.415 177.061 274.818 176.108 268.304C171.819 276.883 165.623 287.368 153.232 283.555C142.747 280.329 146.026 259.726 149.896 246.381C150.608 243.927 151.434 241.089 152.332 238.014C145.914 237.438 139.359 238.322 132.372 240.662C131.706 240.885 131.01 241.126 130.288 241.375C129.312 241.713 128.289 242.067 127.227 242.416C122.676 257.818 118.859 270.558 117.962 273.07C117.933 273.151 117.905 273.232 117.876 273.313C117.839 273.416 117.803 273.518 117.766 273.621C115.494 280.003 113.886 284.522 104.618 284.985C96.9925 285.366 96.9925 278.472 97.9457 274.977L107.084 244.179C102.252 242.774 97.5386 239.516 93.4362 233.169C92.8259 232.225 92.8641 231.256 93.4991 230.641C93.9646 230.19 94.9288 230.164 95.9699 230.81C101.308 234.119 105.584 235.488 109.606 235.678L123.682 188.237ZM193.986 260.074C195.232 250.953 200.524 240.174 206.609 239.304C213.758 238.283 213.281 248.36 209.469 252.172L209.322 252.319C206.412 255.231 204.641 257.003 193.986 260.074ZM303.875 243.601C308.959 240.742 312.454 242.172 314.36 245.984C311.501 246.937 306.703 253.61 305.305 258.852C303.399 266.001 303.875 272.197 305.305 276.486C302.922 277.439 295.257 277.549 294.82 268.384C294.412 259.805 297.097 247.414 303.875 243.601ZM309.118 260.759C310.548 255.039 314.36 249.797 316.267 250.274C319.603 251.227 316.602 261.826 315.314 265.048C314.36 267.431 311.977 272.197 309.118 274.58C308.165 272.197 307.688 266.478 309.118 260.759Z" fill="#9EB6D5"/>
<path d="M537.567 182.636C541.175 175.421 548.424 174.619 551.597 175.12C558.111 176.149 558.276 181.634 557.109 185.643C549.426 212.033 533.558 266.217 531.554 271.829C529.049 278.844 527.545 283.855 517.524 284.356C509.507 284.756 509.507 277.508 510.509 273.833L537.567 182.636Z" fill="#9EB6D4"/>
<path d="M586.784 180.272C592.618 176.673 597.998 182.466 598.678 184.48C602.294 191.86 598.507 197.254 593.813 199.963L579.951 207.639C577.492 209.218 573.691 211.251 571.899 211.482C570.108 211.714 566.964 210.158 569.186 205.667C572.075 199.829 580.347 184.242 586.784 180.272Z" fill="#9EB6D4"/>
<path d="M578.824 236.84C581.708 228.658 587.22 227.656 592.354 228.822C600.248 230.616 600.371 235.838 599.369 239.345C606.384 231.829 615.403 224.814 623.922 228.822C630.736 232.029 631.772 239.846 631.438 243.354L635.947 237.842C644.967 226.654 655.991 224.313 664.008 230.827C671.902 237.241 664.286 255.215 661.881 261.228C659.876 266.239 659.12 270.787 661.001 271.414C662.883 272.041 664.984 270.749 667.014 267.907C670.711 262.731 673.699 254.628 674.408 253.211C674.909 252.209 675.911 250.706 677.414 251.207C678.917 251.708 678.372 253.542 678.038 254.377C669.397 272.753 663.166 280.197 655.991 282.939C648.35 285.859 640.457 282.939 639.956 273.92C639.455 264.9 642.963 260.892 646.47 248.866C649.276 239.245 647.426 237.216 644.967 237.341C637.328 237.728 629.812 249.703 626.304 263.734C625.691 266.185 624.197 272.06 622.796 276.261C620.959 281.772 616.282 283.276 611.773 283.276C607.094 283.276 603.755 282.412 602.753 279.768C601.479 276.406 603.868 271.001 604.379 269.41C608.889 255.38 610.48 244.366 610.893 240.347C611.272 236.675 606.762 235.172 601.373 243.354C594.527 253.748 590.349 267.406 588.846 272.416C587.343 277.427 583.712 283.276 574.315 283.44C566.289 283.58 566.631 276.926 567.801 273.418C570.139 264.566 575.954 244.984 578.824 236.84Z" fill="#9EB6D4"/>
</svg>
