<svg width="828" height="820" viewBox="0 0 828 820" fill="none" xmlns="http://www.w3.org/2000/svg">
<g clip-path="url(#clip0_1353_2554)">
<rect width="828" height="1704" transform="translate(0 -352)" fill="#F8EDE1"/>
<g filter="url(#filter0_i_1353_2554)">
<path fill-rule="evenodd" clip-rule="evenodd" d="M692.686 -190H606.269C606.269 -190 582.869 -190 582.869 -170.024C582.869 -150.047 604.952 -151.979 604.952 -151.979L623.869 -152.024C632.869 -152.024 637.869 -143.024 637.869 -135.024C637.869 -127.024 631.69 -120.336 623.952 -120.336H503.253C496.869 -120.336 482.369 -116.524 482.369 -102.024C482.369 -84.5237 497.369 -83.4542 503.253 -83.4542H542.244C542.244 -83.4542 559.869 -85.7393 559.869 -71.5237C559.869 -59.8463 543.369 -59.8463 543.369 -59.8463H305.986C297.869 -59.8463 287.369 -51.0991 287.369 -38.5237C287.369 -25.9483 301.369 -19.192 305.986 -19.192H480.565C480.565 -19.192 502.369 -20.192 502.369 -0.0236816C502.369 18.1074 480.565 18.1074 480.565 18.1074H348.164C343.369 18.1074 328.136 18.4719 328.136 35.4213C328.136 45.3783 333.22 49.8476 338.489 51.8407H300.948C294.576 50.3824 281.832 51.4828 281.832 67.5496C281.832 83.6165 271.477 86.5727 266.3 86.0424H99.9012C94.392 86.175 83.3686 90.9762 83.3686 102.976C83.3686 114.976 93.8686 119.881 99.9012 119.881H143.616C148.528 120.08 161.869 125.476 161.869 140.476C161.869 154.476 148.528 159.377 143.616 159.31H134.059C129.369 159.31 116.369 162.476 116.369 177.476C116.369 193.976 130.369 197.149 134.059 197.149H217.682C222.369 197.149 235.369 202.976 235.369 215.976C235.369 227.976 223.869 234.988 218.682 234.988H94.0625C89.8686 234.988 76.8686 238.476 76.8686 252.476C76.8686 266.976 88.8686 271.832 93.3413 271.832L247.975 272.164H356.376C307.186 272.235 260.5 272.3 252.796 272.3C257.369 272.3 268.869 278 268.869 290C268.869 299 260.369 304.576 252.796 304.576H146.369C140.867 304.576 120.369 306.5 120.369 332C120.369 357.5 146.369 359.5 146.369 359.5H165.176C169.341 359.597 183.369 366 183.369 382.5C183.369 399 170.369 404.675 165.176 404.675H135.147C127.869 404.675 112.369 415 112.369 431.5C112.369 450.5 129.369 457.102 136.273 457.102H199.506C202.869 457.102 219.369 461 219.369 479.5C219.369 497.295 204.038 498.062 199.939 498.267L199.785 498.274C199.684 498.28 199.59 498.285 199.506 498.289H67.432C62.1039 498.289 46.3687 501.5 46.3687 518.5C46.3687 535.5 61.3687 538.78 67.432 538.78H118.774C120.869 538.78 135.369 541.5 135.369 556.5C135.369 570 120.369 571.862 118.774 571.862H73.3783C60.4983 571.862 46.7914 580.119 46.7914 600.353C46.7914 620.586 61.1423 627.389 75.6323 627.389C90.1222 627.389 93.6641 640.022 93.6641 646.784C93.6641 653.546 85.9362 656.03 75.6323 656.03H-23.8687C-30.4562 657.774 -43.6313 664.752 -43.6313 678.706C-43.6313 684.986 -41.9712 862.78 -41.8177 862.845L-41.8169 9450.11C-44.6263 9462.91 -40.2475 9488.49 -0.257072 9488.49H873.706C885.137 9487.13 908 9476.74 908 9446.04C908 9437.6 904.976 8793.86 900.59 7860.4C889.026 5399.15 868 923.72 868 768.974C869.356 760.252 867.709 742.809 850.272 742.809H755.968C742.869 742.809 727.869 728.315 727.869 712.5C727.869 699.272 739.369 689.086 755.968 689.086H783.915C793.805 689.086 819.243 687.006 819.243 663.5C819.243 639.994 799.144 631.96 781.008 631.96H736.257C730.105 631.379 717.802 624 717.802 610.738C717.802 597.476 730.735 588.934 738.727 588.934C746.719 588.934 767.869 587.05 767.869 567.5C767.869 547.95 746.429 537.424 737.71 537.424H667.249C661.369 537.424 641.369 528 641.369 505.5C641.369 484.5 660.369 478.668 667.249 478.668H758.869C762.369 478.668 787.369 477 787.369 449C787.369 420 764.824 416.253 759.496 416.253H641.259C636.369 416.253 620.369 411 620.369 393.5C620.369 376 635.369 371.229 641.259 371.229H671.279C675.369 371.229 695.369 367.5 695.369 348C695.369 327 675.929 320.658 671.279 320.658H599.101C588.869 320.658 577.069 310.883 577.069 296.941C577.069 285.044 585.98 274.886 595.397 272.164H611.745C619.369 272.164 625.369 268.976 625.369 261.476C625.369 253.976 618.427 250.29 611.148 250.29C603.869 250.29 596.869 246.976 596.869 238.976C596.869 230.976 605.369 228.815 611.148 228.815H717.66C717.66 228.815 734.869 228.976 734.869 214.476C734.869 199.976 722.369 198.351 715.66 198.351H646.572C641.369 198.351 629.369 192.976 629.369 180.976C629.369 168.976 640.369 163.296 645.869 163.296H775.621C781.329 163.296 793.869 159.476 793.869 145.976C793.869 132.476 780.869 127.048 774.621 127.048H694.843C688.369 127.048 676.369 122.476 676.369 109.976C676.369 95.9774 687.869 92.662 694.843 92.662H754.143C759.869 92.662 774.621 87.7704 774.621 72.9762C774.621 55.4762 758.369 51.8407 753.143 51.8407H637.084C642.664 49.6562 647.394 44.911 647.394 35.4213C647.394 12.9763 654.869 4.23456 665.147 4.23456H721.983C730.369 4.23456 745.369 -2.52376 745.369 -16.0238C745.369 -33.0238 730.369 -38.6595 721.983 -38.6595H656.869C656.869 -38.6595 633.869 -39.1595 633.869 -57.0237C633.869 -76.6642 656.869 -76.1642 656.869 -76.1642H762.63C766.869 -76.1642 783.869 -78.0237 783.869 -95.5237C783.869 -116.024 768.869 -116.919 762.63 -116.919H680.168C674.869 -116.919 666.869 -122.024 666.869 -135.024C666.869 -143.954 672.869 -151.979 680.168 -151.979H692.686C698.452 -151.295 713.369 -156.524 713.369 -170.024C713.369 -185.524 698.369 -190 692.686 -190Z" fill="#DDE6F1"/>
</g>
</g>
<defs>
<filter id="filter0_i_1353_2554" x="-43.6313" y="-190" width="951.631" height="9678.49" filterUnits="userSpaceOnUse" color-interpolation-filters="sRGB">
<feFlood flood-opacity="0" result="BackgroundImageFix"/>
<feBlend mode="normal" in="SourceGraphic" in2="BackgroundImageFix" result="shape"/>
<feColorMatrix in="SourceAlpha" type="matrix" values="0 0 0 0 0 0 0 0 0 0 0 0 0 0 0 0 0 0 127 0" result="hardAlpha"/>
<feOffset/>
<feGaussianBlur stdDeviation="27"/>
<feComposite in2="hardAlpha" operator="arithmetic" k2="-1" k3="1"/>
<feColorMatrix type="matrix" values="0 0 0 0 0.227451 0 0 0 0 0.407843 0 0 0 0 0.639216 0 0 0 0.28 0"/>
<feBlend mode="normal" in2="shape" result="effect1_innerShadow_1353_2554"/>
</filter>
<clipPath id="clip0_1353_2554">
<rect width="828" height="1704" fill="white" transform="translate(0 -352)"/>
</clipPath>
</defs>
</svg>
