<svg width="1920" height="970" viewBox="0 0 1920 970" fill="none" xmlns="http://www.w3.org/2000/svg">
<g clip-path="url(#clip0_1277_2527)">
<rect width="1920" height="1593" fill="#F8EDE1"/>
<g filter="url(#filter0_i_1277_2527)">
<path fill-rule="evenodd" clip-rule="evenodd" d="M1403.27 0.0288857H1487.75C1494.76 -0.34093 1508.8 2.69155 1508.8 17.78C1508.8 32.8685 1494.76 34.9764 1487.75 34.1444H1472.51C1468.27 35.0689 1459.77 39.6361 1459.77 50.5087C1459.77 61.3813 1468.27 64.4692 1472.51 64.6541H1662.86C1668.03 64.1919 1678.37 67.3723 1678.37 83.7921C1678.37 100.212 1668.03 102.838 1662.86 102.098H1483.59C1477.68 103.115 1465.87 108.533 1465.87 122.068C1465.87 135.603 1477.68 140.281 1483.59 140.929H1749.28C1754.73 141.853 1765.62 147.252 1765.62 161.453C1765.62 175.654 1754.73 179.574 1749.28 179.759H1432.63C1425.8 179.667 1412.13 183.531 1412.13 199.729C1412.13 215.927 1425.8 220.531 1432.63 220.809H1508.8C1516.46 221.178 1531.79 225.635 1531.79 240.501C1531.79 255.368 1516.46 259.454 1508.8 259.639H1454.23C1436.12 259.639 1432.63 280.023 1432.63 302.434C1432.63 322 1416.12 325 1406.04 324.345H1268.24C1264.89 326.267 1261.12 329.805 1261.12 335.5C1261.12 341.924 1264.21 345.665 1267.62 347.652H1599.67C1607.77 346.362 1623.96 348.924 1623.96 369.493C1623.96 390.061 1607.77 392.07 1599.67 390.504H1518.83C1511.56 388.753 1497.02 390.117 1497.02 409.58C1497.02 429.043 1511.56 429.485 1518.83 427.273L1752.1 427.273C1758.45 426.72 1771.15 429.43 1771.15 444.69C1771.15 459.951 1758.45 461.001 1752.1 459.619L1570 459.619C1563.83 459.711 1551.5 462.992 1551.5 475.377C1551.5 487.763 1563.83 490.122 1570 489.753H1630.83C1638.75 488.832 1654.58 490.914 1654.58 506.617C1654.58 522.32 1638.75 526.246 1630.83 526.246H1364.01C1356.1 525.232 1340.27 527.518 1340.27 544.769C1340.27 562.02 1356.1 562.831 1364.01 561.08H1462.58C1470.03 559.329 1484.94 560.14 1484.94 577.391C1484.94 594.643 1470.03 595.454 1462.58 593.703H1314.9C1305.51 593.703 1294.47 595.914 1294.47 609.185C1294.47 622.455 1300.82 623.56 1314.9 623.56C1328.98 623.56 1339.47 628.26 1339.47 639.042C1339.47 649.824 1330.63 653.971 1315.73 653.971H1287.63C1284.21 658.673 1282.12 664.352 1282.12 670.823C1282.12 690.324 1303.62 699.886 1316.33 699.886H1419.22C1426.45 699.886 1431.41 704.851 1431.41 715.685C1431.41 724.353 1418.47 725.918 1412 725.617H1332.58C1326.41 725.617 1314.07 728.325 1314.07 739.16C1314.07 749.994 1326.41 753.304 1332.58 753.605H1726.34C1734.62 753.605 1751.17 758.12 1751.17 776.177C1751.17 794.234 1736.42 800.855 1729.05 801.908H1502.51C1493.03 801.156 1474.07 804.436 1474.07 823.576C1474.07 842.717 1493.03 846.599 1502.51 846.148H1692.05C1696.11 845.997 1704.23 848.224 1704.23 858.336C1704.23 868.448 1696.11 869.471 1692.05 868.719H1539.06C1534.25 867.967 1524.62 869.351 1524.62 880.908C1524.62 892.464 1534.25 894.149 1539.06 893.547H1595.92C1602.84 893.397 1616.68 897.339 1616.68 914.313C1616.68 931.287 1602.84 933.724 1595.92 932.822H1363.62C1353.69 932.822 1335.29 944.107 1335.29 969.839C1335.29 990.424 1354.84 1000.69 1364.62 1003.24H1546.49C1550.1 1003.24 1571.08 1004.82 1571.08 1024.01C1571.08 1039.36 1554.69 1042.74 1546.49 1042.52H1470.67C1464.43 1042.74 1451.94 1046.81 1451.94 1061.25C1451.94 1075.7 1466.68 1078.71 1474.06 1078.41H1626.49C1640.03 1078.41 1675.23 1092.4 1675.23 1125.81C1675.23 1159.21 1640.48 1163.05 1628.07 1163.05C1615.66 1163.05 1595.57 1166.66 1595.57 1196.91C1595.57 1221.1 1614.68 1228.96 1624.23 1229.86H1775.75C1803.91 1229.86 1835.12 1236.82 1835.12 1277.82C1835.12 1314.32 1795.62 1318.57 1780.26 1318.57H1736.87C1731.9 1318.57 1712.05 1321.73 1712.05 1342.27C1712.05 1364 1725.01 1367.59 1733.72 1370.01C1734.86 1370.33 1735.92 1370.62 1736.87 1370.93H1910.52C1937.6 1370.93 1940.15 1398.02 1938.05 1411.56V4026.41C1938.05 4074.08 1938.12 4093.32 1938.12 4093.32C1659.18 4093.32 800.471 4093.83 310.728 4094.13L309.951 4094.13L281.914 4094.14C102.012 4094.25 -22.1762 4094.32 -39 4094.32L-39 4032.73V1557.32C-39 1557.32 159.415 1557.14 186.493 1557.14C208.155 1557.14 212.62 1545.25 212.62 1538.82C212.47 1532.05 207.071 1520.58 186.493 1520.58C161.12 1520.58 154 1505.82 154 1497.56V1454.67C154 1431.56 173.255 1426.98 182.882 1427.59H339.745C345.611 1428.49 357.345 1427.13 357.345 1414.49C357.345 1401.85 345.611 1399.6 339.745 1400.05H200.292C197.735 1399.75 192.62 1397.79 192.62 1392.37C192.62 1386.96 197.735 1384.4 200.292 1383.8H343.849C347.609 1384.25 355.131 1382.98 355.131 1374.32C355.131 1365.65 347.609 1363.48 343.849 1363.48H99.58C95.2176 1363.18 86.4927 1360.14 86.4927 1350.39C86.4927 1340.64 95.2176 1338.2 99.58 1338.2H172.237C176.75 1338.2 184.422 1334.59 184.422 1323.76C184.422 1315.09 176.299 1312.32 172.237 1312.02H89.2004C66.1847 1312.02 55.8051 1298.48 55.8051 1271.39C55.8051 1249.72 76.2635 1238.89 86.4927 1236.18H306.621C322.621 1236.18 334.621 1232.32 334.621 1221.82C334.621 1211.32 329.121 1204.13 306.621 1204.13C284.121 1204.13 261.836 1193.57 261.836 1162.15C261.836 1130.73 283.121 1117.91 303.121 1117.91H440.382C443.842 1118.36 450.761 1117 450.761 1107.97C450.761 1098.95 443.842 1097.29 440.382 1097.59H255.067C246.794 1098.19 230.246 1094.79 230.246 1076.38C230.246 1057.96 246.794 1053.35 255.067 1053.35H520.711C525.826 1053.05 536.055 1049.83 536.055 1039.36C536.055 1028.89 525.826 1024.46 520.711 1023.56H368.176C358.849 1021.6 340.196 1010.92 340.196 983.833C340.196 956.747 358.849 943.355 368.176 940.044H428.648C437.674 940.947 455.726 938.329 455.726 920.633C455.726 902.937 436.081 899.416 428.259 899.867H256.75C256.659 899.867 256.563 899.868 256.463 899.868L256.303 899.868C249.127 899.889 220.196 899.972 220.196 864.205C220.196 834.952 242.159 829.445 253.14 830.348H295.11C302.782 831.401 318.125 829.535 318.125 813.645C318.125 797.755 305.188 793.481 298.72 793.331H184.663C176.54 793.331 164.62 789.823 164.62 776.823C164.62 763.823 176.12 759.022 184.663 759.022H511.685C518.906 758.421 533.347 753.244 533.347 737.354C533.347 721.464 518.906 715.685 511.685 714.783H470.167C464.3 715.685 452.567 713.428 452.567 697.177C452.567 680.926 464.3 678.668 470.167 679.571H751.996C770.621 679.571 775.621 669.861 775.621 659.823C775.621 657.629 775.301 655.689 774.732 653.971H679.518C672.524 654.34 658.536 651.317 658.536 636.278C658.536 621.238 672.524 619.137 679.518 619.966H771.703C775.937 619.045 784.404 614.493 784.404 603.655C784.404 592.818 775.937 589.74 771.703 589.556H345.577C340.423 590.017 330.115 586.846 330.115 570.48C330.115 554.113 341.423 551.496 346.577 552.234H565.66C572.62 552.234 583.33 545.82 583.33 532.328C583.33 518.837 571.55 514.174 565.66 513.529H360.437C355.007 512.607 344.147 507.226 344.147 493.071C344.147 478.916 355.007 475.009 360.437 474.824H376.46C383.271 474.917 396.891 471.065 396.891 454.919C396.891 438.774 383.271 434.185 376.46 433.908H210.536C202.897 433.54 187.62 429.098 187.62 414.28C187.62 399.461 202.897 395.388 210.536 395.204H704.925C712.104 395.941 726.46 391.831 726.46 369.493C726.46 347.155 744.13 345.625 752.965 347.652H1197.81C1200.76 345.571 1203.62 341.805 1203.62 336.5C1203.62 329.188 1199.98 325.756 1196.93 324.345H1068.49C1060.12 324.5 1044.11 323.07 1044.11 302.434C1044.11 281.798 1060.36 279.783 1068.49 281.354H1229.61C1243.12 281.354 1254.49 273.5 1254.49 254.5C1254.49 233 1241.12 227.465 1229.61 227.465H965.731C959.361 228.02 946.62 225.302 946.62 209.992C946.62 194.681 959.361 193.627 965.731 195.014H1238.47C1244.66 194.922 1257.03 191.63 1257.03 179.204C1257.03 166.779 1244.66 164.412 1238.47 164.782H1077.35C1069.41 165.706 1053.53 163.617 1053.53 147.863C1053.53 132.108 1069.41 128.17 1077.35 128.17H1304.67C1312.61 129.187 1328.49 126.894 1328.49 109.587C1328.49 92.2794 1312.61 91.4658 1304.67 93.2224H1205.79C1198.31 94.979 1183.36 94.1654 1183.36 76.858C1183.36 59.5507 1198.31 58.7371 1205.79 60.4937H1404.1C1413.52 60.4937 1424.6 58.2748 1424.6 44.9615C1424.6 31.6481 1418.23 30.5387 1404.1 30.5387C1389.98 30.5387 1379.45 25.8235 1379.45 15.0064C1379.45 4.18931 1388.31 0.0288857 1403.27 0.0288857ZM851.963 653.971C851.739 655.155 851.621 656.436 851.621 657.823C851.621 669.323 863.621 674.831 873.167 674.831H1018.71C1028.12 674.831 1038.62 669.823 1038.62 658.823C1038.62 657.053 1038.48 655.44 1038.21 653.971H851.963Z" fill="#D7E2F1"/>
</g>
</g>
<defs>
<filter id="filter0_i_1277_2527" x="-39" y="0" width="1977.62" height="4094.32" filterUnits="userSpaceOnUse" color-interpolation-filters="sRGB">
<feFlood flood-opacity="0" result="BackgroundImageFix"/>
<feBlend mode="normal" in="SourceGraphic" in2="BackgroundImageFix" result="shape"/>
<feColorMatrix in="SourceAlpha" type="matrix" values="0 0 0 0 0 0 0 0 0 0 0 0 0 0 0 0 0 0 127 0" result="hardAlpha"/>
<feOffset/>
<feGaussianBlur stdDeviation="27"/>
<feComposite in2="hardAlpha" operator="arithmetic" k2="-1" k3="1"/>
<feColorMatrix type="matrix" values="0 0 0 0 0.227451 0 0 0 0 0.407843 0 0 0 0 0.639216 0 0 0 0.28 0"/>
<feBlend mode="normal" in2="shape" result="effect1_innerShadow_1277_2527"/>
</filter>
<clipPath id="clip0_1277_2527">
<rect width="1920" height="1593" fill="white"/>
</clipPath>
</defs>
</svg>
