<svg width="1920" height="870" viewBox="0 0 1920 870" fill="none" xmlns="http://www.w3.org/2000/svg">
<g clip-path="url(#clip0_1588_2716)">
<rect width="1920" height="1631" transform="translate(0 -761)" fill="#F8EDE1"/>
<g filter="url(#filter0_i_1588_2716)">
<path fill-rule="evenodd" clip-rule="evenodd" d="M517.438 -348.039H355.03C345.631 -347.543 326.833 -351.609 326.833 -371.841C326.833 -392.074 345.631 -394.9 355.03 -393.784H478.911C484.6 -395.024 495.978 -401.148 495.978 -415.728C495.978 -430.307 484.6 -434.447 478.911 -434.695H266.267C259.341 -434.075 245.49 -438.34 245.49 -460.358C245.49 -482.375 260.685 -485.896 267.611 -484.904H392.023C401.376 -484.904 415.768 -493.533 415.768 -511.682C415.768 -529.832 399.938 -536.105 392.023 -536.972H286.236C278.94 -538.212 264.346 -545.452 264.346 -564.494C264.346 -583.536 278.94 -588.793 286.236 -589.041H307.77C316.922 -588.917 335.225 -594.099 335.225 -615.819C335.225 -637.539 316.922 -643.712 307.77 -644.084H214.794C204.529 -644.58 184 -650.556 184 -670.49C184 -690.425 204.529 -695.905 214.794 -696.153H619.173C628.819 -695.161 648.112 -700.69 648.112 -730.741C648.112 -760.792 671.858 -762.85 683.73 -760.122H1519.56C1531.5 -760.122 1559 -753 1559 -722C1559 -693 1531 -686.475 1519.56 -686.475H1494.5C1483.57 -686.475 1467.5 -677 1467.5 -655.5C1467.5 -637.5 1479 -623.957 1495 -623.957H1632.44C1643.5 -623.957 1667 -611 1667 -582.5C1667 -552.5 1644.08 -544.864 1633.44 -544.864H1595.88C1586 -544.864 1569.5 -540 1569.5 -521.5C1569.5 -503 1588 -498.003 1595.88 -498.003H1698.33C1708 -498.003 1728.5 -490 1728.5 -470.5C1728.5 -451 1710 -443.117 1698.33 -443.117H1498.88C1483 -443.117 1472.5 -435.5 1472.5 -424C1472.5 -412.5 1479.95 -402.95 1498.88 -402.95C1517.8 -402.95 1530.5 -392.5 1530.5 -375C1530.5 -357.5 1520.02 -348.039 1499.99 -348.039H1395.24C1379.81 -342.845 1366.52 -329.897 1366.52 -311.926C1366.52 -288.254 1392.62 -276.648 1408.05 -276.648H1662.95C1671.71 -276.648 1690.5 -267.5 1690.5 -246C1690.5 -226.5 1671 -217.414 1662.95 -217.414H1557.77C1550.28 -217.414 1535.31 -210.5 1535.31 -194C1535.31 -177.5 1550.28 -171.805 1557.77 -171.44H1775.75C1785.79 -171.44 1806 -163.919 1806 -142C1806 -120.081 1788.5 -112.807 1779.03 -112.807H1687.04C1676 -112.807 1652.53 -106.234 1652.53 -83C1652.53 -59.7662 1675 -51.5702 1687.04 -51.5702H1720.43C1728.83 -51.7529 1750.5 -38 1750.5 -12.5C1750.5 13 1730.5 26.1028 1720.43 26.1028H1605.45C1593.4 26.1028 1572 34.0127 1572 59C1572 83.9873 1595.5 91.5856 1606.66 91.5856H1787.53C1787.53 91.5856 1836 95 1836 141C1836 174 1808.52 189.566 1793.45 189.566H1723C1723 189.566 1696.5 188.066 1696.5 215C1696.5 241.934 1723 241.5 1723 241.5H1755C1769.5 241.5 1782 250 1782 265C1782 280 1771 289 1755 289H1662C1662 289 1613.5 284.5 1613.5 331C1613.5 377.5 1662 376.665 1662 376.665H1808.72C1842.9 376.665 1880.78 381.116 1880.78 430.884C1880.78 475.19 1832.84 480.34 1814.2 480.34H1761.52C1755.49 480.34 1731 482.5 1731 507.5C1731 534 1755 537.905 1761.52 537.905H1950.46C1983.33 537.905 1986.43 570.783 1983.87 587.222V14219.9C1983.87 14277.8 1983.96 14301.1 1983.96 14301.1C1645.37 14301.1 804.851 14301.7 325.482 14302.1C134.252 14302.2 0.494713 14302.3 -21 14302.3L-21 14227.6V684.157C-21 684.157 146.132 683.941 179 683.941C183.73 683.941 235.5 677 235.5 625.5C235.5 574 192.403 566.863 179 566.863H138.09C137.904 566.85 137.692 566.837 137.454 566.822C130.885 566.416 105 564.815 105 537C105 508.177 132.794 508.177 138.09 508.177H169.285C169.285 508.177 190 503.5 190 484C190 463 174.215 456.76 169.285 456.395H70.4903C52 456.395 24.5 439.5 24.5 405C24.5 370.5 56.5 357.337 69.2035 357.337H173.407C191.5 357.337 209 346.5 209 324.5C209 302.5 191 291.431 171.407 291.431C151.814 291.431 128.5 280.5 128.5 255.5C128.5 230.5 147.881 217.769 172.158 217.769L229.774 217C229.774 217 265.5 215 265.5 186.5C265.5 158 234.5 154 229.774 154H152.5C136.046 154 93.5 139 93.5 94C93.5 49 128 33.8702 151.126 33.8702H212.531C223.5 33.8702 243 27.5 243 4C243 -19.5 221.5 -25.8987 212.058 -25.8987H92.5C84.8308 -25.8987 43 -33.5 43 -78.5C43 -123.5 80 -128.864 92.5 -128.864H277C292.5 -128.864 317 -133 317 -159.5C317 -191.098 289.421 -190.726 278.736 -190.581C278.093 -190.573 277.511 -190.565 277 -190.565H242C234 -190.565 207.5 -200 207.5 -232C207.5 -262 233 -273.306 242 -273.306H513.029C535.636 -273.306 549 -294 549 -310C549 -336.235 528.335 -345.256 517.438 -348.039Z" fill="#D7E2F1"/>
</g>
</g>
<defs>
<filter id="filter0_i_1588_2716" x="-21" y="-761" width="2005.57" height="15063.3" filterUnits="userSpaceOnUse" color-interpolation-filters="sRGB">
<feFlood flood-opacity="0" result="BackgroundImageFix"/>
<feBlend mode="normal" in="SourceGraphic" in2="BackgroundImageFix" result="shape"/>
<feColorMatrix in="SourceAlpha" type="matrix" values="0 0 0 0 0 0 0 0 0 0 0 0 0 0 0 0 0 0 127 0" result="hardAlpha"/>
<feOffset/>
<feGaussianBlur stdDeviation="27"/>
<feComposite in2="hardAlpha" operator="arithmetic" k2="-1" k3="1"/>
<feColorMatrix type="matrix" values="0 0 0 0 0.227451 0 0 0 0 0.407843 0 0 0 0 0.639216 0 0 0 0.28 0"/>
<feBlend mode="normal" in2="shape" result="effect1_innerShadow_1588_2716"/>
</filter>
<clipPath id="clip0_1588_2716">
<rect width="1920" height="1631" fill="white" transform="translate(0 -761)"/>
</clipPath>
</defs>
</svg>
