<svg width="828" height="795" viewBox="0 0 828 795" fill="none" xmlns="http://www.w3.org/2000/svg">
<g clip-path="url(#clip0_1728_3209)">
<rect width="828" height="1704" transform="translate(0 -377)" fill="#F8EDE1"/>
<g filter="url(#filter0_i_1728_3209)">
<path fill-rule="evenodd" clip-rule="evenodd" d="M339.997 -154.208H231.607L76.9727 -154.539C72.5 -154.539 60.5 -159.395 60.5 -173.895C60.5 -187.895 73.5 -191.384 77.6939 -191.384H202.314C207.5 -191.384 219 -198.395 219 -210.395C219 -223.395 206 -229.222 201.314 -229.222H137.69C134 -229.222 120 -232.395 120 -248.895C120 -263.895 133 -267.061 137.69 -267.061H147.247C152.159 -266.995 165.5 -271.895 165.5 -285.895C165.5 -300.895 152.159 -306.292 147.247 -306.49H103.533C97.5 -306.49 87 -311.395 87 -323.395C87 -335.395 98.0234 -340.196 103.533 -340.329H269.931C275.108 -339.799 285.463 -342.755 285.463 -358.822C285.463 -374.889 298.207 -375.989 304.579 -374.531H626.775C632 -374.531 648.252 -370.895 648.252 -353.395C648.252 -338.601 633.5 -333.709 627.775 -333.709H608.474C601.5 -333.709 590 -330.394 590 -316.395C590 -303.895 602 -299.323 608.474 -299.323H728.252C734.5 -299.323 747.5 -293.895 747.5 -280.395C747.5 -266.895 734.96 -263.075 729.252 -263.075H629.5C624 -263.075 613 -257.395 613 -245.395C613 -233.395 625 -228.021 630.203 -228.021L699.292 -228.021C706 -228.021 718.5 -226.395 718.5 -211.895C718.5 -197.395 701.292 -197.557 701.292 -197.557H594.779C589 -197.557 580.5 -195.395 580.5 -187.395C580.5 -179.395 587.5 -176.081 594.779 -176.081C602.058 -176.081 609 -172.395 609 -164.895C609 -157.395 603 -154.208 595.376 -154.208H579.029C569.611 -151.485 560.7 -141.328 560.7 -129.43C560.7 -115.489 572.5 -105.714 582.732 -105.714H654.91C659.56 -105.714 679 -99.3715 679 -78.3715C679 -58.8715 659 -55.1428 654.91 -55.1428H624.89C619 -55.1428 604 -50.3715 604 -32.8715C604 -15.3715 620 -10.1183 624.89 -10.1183H743.127C748.455 -10.1183 771 -6.37152 771 22.6285C771 50.6285 746 52.2965 742.5 52.2965H650.88C644 52.2965 625 58.1285 625 79.1285C625 101.628 645 111.053 650.88 111.053H721.341C730.06 111.053 751.5 121.578 751.5 141.128C751.5 160.679 730.351 162.562 722.358 162.562C714.366 162.562 701.433 171.104 701.433 184.366C701.433 197.628 713.737 205.007 719.888 205.589H764.64C782.775 205.589 802.874 213.623 802.874 237.128C802.874 260.634 777.436 262.715 767.546 262.715H739.599C723 262.715 711.5 272.901 711.5 286.128C711.5 301.943 726.5 316.438 739.599 316.438H833.903C851.341 316.438 852.987 333.881 851.631 342.602C851.631 497.295 872.643 11848.1 884.209 18096.2L884.216 18099.7L884.221 18102.8C888.607 20471.8 891.631 22105.6 891.631 22114.1C891.631 22144.8 868.769 22155.1 857.337 22156.5H-16.6257C-56.6161 22156.5 -60.9949 22130.9 -58.1855 22118.1L-58.1863 436.474C-58.3399 436.408 -60 258.614 -60 252.335C-60 238.38 -46.8249 231.403 -40.2373 229.659H59.2636C69.5676 229.659 77.2954 227.174 77.2954 220.412C77.2954 213.65 73.7536 201.018 59.2636 201.018C44.7737 201.018 30.4228 194.215 30.4228 173.981C30.4228 153.747 44.1297 145.491 57.0096 145.491H102.405C104 145.491 119 143.628 119 130.128C119 115.128 104.5 112.408 102.405 112.408H51.0634C45 112.408 30 109.128 30 92.1285C30 75.1285 45.7352 71.918 51.0634 71.918H183.137C183.262 71.9107 183.407 71.9035 183.568 71.8954L183.57 71.8953C187.67 71.6902 203 70.9233 203 53.1285C203 34.6285 186.5 30.7307 183.137 30.7307H119.905C113 30.7307 96 24.1285 96 5.12848C96 -11.3715 111.5 -21.6963 118.779 -21.6963H148.807C154 -21.6963 167 -27.3715 167 -43.8715C167 -60.3715 152.973 -66.7746 148.807 -66.8715H130C130 -66.8715 104 -68.8715 104 -94.3715C104 -119.872 124.499 -121.796 130 -121.796H236.428C244 -121.796 252.5 -127.372 252.5 -136.372C252.5 -148.372 241 -154.072 236.428 -154.072C244.131 -154.072 290.81 -154.137 339.997 -154.208Z" fill="#DDE6F1"/>
</g>
</g>
<defs>
<filter id="filter0_i_1728_3209" x="-60" y="-375" width="951.631" height="22531.5" filterUnits="userSpaceOnUse" color-interpolation-filters="sRGB">
<feFlood flood-opacity="0" result="BackgroundImageFix"/>
<feBlend mode="normal" in="SourceGraphic" in2="BackgroundImageFix" result="shape"/>
<feColorMatrix in="SourceAlpha" type="matrix" values="0 0 0 0 0 0 0 0 0 0 0 0 0 0 0 0 0 0 127 0" result="hardAlpha"/>
<feOffset/>
<feGaussianBlur stdDeviation="27"/>
<feComposite in2="hardAlpha" operator="arithmetic" k2="-1" k3="1"/>
<feColorMatrix type="matrix" values="0 0 0 0 0.227451 0 0 0 0 0.407843 0 0 0 0 0.639216 0 0 0 0.28 0"/>
<feBlend mode="normal" in2="shape" result="effect1_innerShadow_1728_3209"/>
</filter>
<clipPath id="clip0_1728_3209">
<rect width="828" height="1704" fill="white" transform="translate(0 -377)"/>
</clipPath>
</defs>
</svg>
