<svg width="828" height="375" viewBox="0 0 828 375" fill="none" xmlns="http://www.w3.org/2000/svg">
<g clip-path="url(#clip0_1728_3209)">
<rect width="828" height="1704" transform="translate(0 -2)" fill="#F8EDE1"/>
<g filter="url(#filter0_i_1728_3209)">
<path fill-rule="evenodd" clip-rule="evenodd" d="M339.997 220.792H231.607L76.9727 220.461C72.5 220.461 60.5 215.605 60.5 201.105C60.5 187.105 73.5 183.616 77.6939 183.616H202.314C207.5 183.616 219 176.605 219 164.605C219 151.605 206 145.778 201.314 145.778H137.69C134 145.778 120 142.605 120 126.105C120 111.105 133 107.939 137.69 107.939H147.247C152.159 108.005 165.5 103.105 165.5 89.1047C165.5 74.1047 152.159 68.7085 147.247 68.5096H103.533C97.5 68.5096 87 63.6047 87 51.6047C87 39.6047 98.0234 34.8036 103.533 34.671H269.931C275.108 35.2012 285.463 32.245 285.463 16.1782C285.463 0.111298 298.207 -0.989014 304.579 0.469208H626.775C632 0.469208 648.252 4.10474 648.252 21.6047C648.252 36.399 633.5 41.2906 627.775 41.2906H608.474C601.5 41.2906 590 44.6059 590 58.6047C590 71.1047 602 75.6768 608.474 75.6768H728.252C734.5 75.6768 747.5 81.1047 747.5 94.6047C747.5 108.105 734.96 111.925 729.252 111.925H629.5C624 111.925 613 117.605 613 129.605C613 141.605 625 146.979 630.203 146.979L699.292 146.979C706 146.979 718.5 148.605 718.5 163.105C718.5 177.605 701.292 177.443 701.292 177.443H594.779C589 177.443 580.5 179.605 580.5 187.605C580.5 195.605 587.5 198.919 594.779 198.919C602.058 198.919 609 202.605 609 210.105C609 217.605 603 220.792 595.376 220.792H579.029C569.611 223.515 560.7 233.672 560.7 245.57C560.7 259.511 572.5 269.286 582.732 269.286H654.91C659.56 269.286 679 275.628 679 296.628C679 316.128 659 319.857 654.91 319.857H624.89C619 319.857 604 324.628 604 342.128C604 359.628 620 364.882 624.89 364.882H743.127C748.455 364.882 771 368.628 771 397.628C771 425.628 746 427.296 742.5 427.296H650.88C644 427.296 625 433.128 625 454.128C625 476.628 645 486.053 650.88 486.053H721.341C730.06 486.053 751.5 496.578 751.5 516.128C751.5 535.679 730.351 537.562 722.358 537.562C714.366 537.562 701.433 546.104 701.433 559.366C701.433 572.628 713.737 580.007 719.888 580.589H764.64C782.775 580.589 802.874 588.623 802.874 612.128C802.874 635.634 777.436 637.715 767.546 637.715H739.599C723 637.715 711.5 647.901 711.5 661.128C711.5 676.943 726.5 691.438 739.599 691.438H833.903C851.341 691.438 852.987 708.881 851.631 717.602C851.631 872.295 872.643 12223.1 884.209 18471.2L884.216 18474.7L884.221 18477.8C888.607 20846.8 891.631 22480.6 891.631 22489.1C891.631 22519.8 868.769 22530.1 857.337 22531.5H-16.6257C-56.6161 22531.5 -60.9949 22505.9 -58.1855 22493.1L-58.1863 811.474C-58.3399 811.408 -60 633.614 -60 627.335C-60 613.38 -46.8249 606.403 -40.2373 604.659H59.2636C69.5676 604.659 77.2954 602.174 77.2954 595.412C77.2954 588.65 73.7536 576.018 59.2636 576.018C44.7737 576.018 30.4228 569.215 30.4228 548.981C30.4228 528.747 44.1297 520.491 57.0096 520.491H102.405C104 520.491 119 518.628 119 505.128C119 490.128 104.5 487.408 102.405 487.408H51.0634C45 487.408 30 484.128 30 467.128C30 450.128 45.7352 446.918 51.0634 446.918H183.137C183.262 446.911 183.407 446.903 183.568 446.895L183.57 446.895C187.67 446.69 203 445.923 203 428.128C203 409.628 186.5 405.731 183.137 405.731H119.905C113 405.731 96 399.128 96 380.128C96 363.628 111.5 353.304 118.779 353.304H148.807C154 353.304 167 347.628 167 331.128C167 314.628 152.973 308.225 148.807 308.128H130C130 308.128 104 306.128 104 280.628C104 255.128 124.499 253.204 130 253.204H236.428C244 253.204 252.5 247.628 252.5 238.628C252.5 226.628 241 220.928 236.428 220.928C244.131 220.928 290.81 220.863 339.997 220.792Z" fill="#DDE6F1"/>
</g>
</g>
<defs>
<filter id="filter0_i_1728_3209" x="-60" y="0" width="951.631" height="22531.5" filterUnits="userSpaceOnUse" color-interpolation-filters="sRGB">
<feFlood flood-opacity="0" result="BackgroundImageFix"/>
<feBlend mode="normal" in="SourceGraphic" in2="BackgroundImageFix" result="shape"/>
<feColorMatrix in="SourceAlpha" type="matrix" values="0 0 0 0 0 0 0 0 0 0 0 0 0 0 0 0 0 0 127 0" result="hardAlpha"/>
<feOffset/>
<feGaussianBlur stdDeviation="27"/>
<feComposite in2="hardAlpha" operator="arithmetic" k2="-1" k3="1"/>
<feColorMatrix type="matrix" values="0 0 0 0 0.227451 0 0 0 0 0.407843 0 0 0 0 0.639216 0 0 0 0.28 0"/>
<feBlend mode="normal" in2="shape" result="effect1_innerShadow_1728_3209"/>
</filter>
<clipPath id="clip0_1728_3209">
<rect width="828" height="1704" fill="white" transform="translate(0 -2)"/>
</clipPath>
</defs>
</svg>
