<svg width="237" height="70" viewBox="0 0 237 70" fill="none" xmlns="http://www.w3.org/2000/svg">
<path d="M129.25 19.5183C131.577 19.5183 132.802 19.7745 133.519 23.3599C133.946 25.4942 131.811 26.5037 129.677 26.5613C117.975 26.8771 111.925 27.4686 109.389 27.3855C106.218 27.2816 103.426 27.6284 102.483 24.1778C101.56 20.7989 104.28 20.3909 105.839 20.3909L129.25 19.5183Z" fill="#6E97CB"/>
<path d="M29.3889 16.984C29.816 13.1424 32.2665 11.8618 34.0843 11.8618C36.2187 11.8618 37.9259 13.1424 37.9259 16.3437C37.9259 19.5451 36.2185 21.205 34.0843 21.6793C32.1635 22.1062 28.938 21.0391 29.3889 16.984Z" fill="#6E97CB"/>
<path d="M167.795 16.984C168.222 13.1424 170.673 11.8618 172.491 11.8618C174.625 11.8618 176.332 13.1424 176.332 16.3437C176.332 19.5451 174.625 21.205 172.491 21.6793C170.57 22.1062 167.344 21.0391 167.795 16.984Z" fill="#6E97CB"/>
<path fill-rule="evenodd" clip-rule="evenodd" d="M32.5702 23.7881C31.1474 23.717 28.0029 24.2577 26.8077 26.9895C25.3138 30.4043 24.0332 37.0204 23.8198 40.2218C23.6064 43.4232 24.8869 47.2648 28.942 47.0514C32.186 46.8807 33.5662 45.4151 33.8508 44.7037C33.9931 45.344 34.7472 46.7099 36.6253 47.0514C38.973 47.4782 41.961 47.2648 43.4549 42.3561C44.9489 37.4473 47.2966 31.6848 49.4308 29.5506C51.5651 27.4163 52.4188 27.4163 53.059 27.8432C53.6993 28.27 53.4859 30.6177 52.2053 33.8191C50.9248 37.0204 49.2174 44.0635 51.3516 45.9843C53.4859 47.9051 59.6752 48.7588 63.9437 40.2218C64.0148 41.9292 65.2669 45.6428 69.7061 46.838C74.1454 48.0331 78.2431 45.0594 79.7371 43.4232C78.9545 46.6245 76.5784 54.6066 73.3344 60.924C69.2793 68.8207 65.7606 65.9707 65.4376 65.6193C64.9883 65.1303 63.09 62.8448 65.8645 58.7897C68.0841 55.5457 66.7893 53.3118 65.8645 52.6004C64.8685 51.391 62.279 49.6979 59.8886 52.6004C56.9007 56.2286 57.5409 62.8448 59.2483 65.4059C60.9557 67.967 65.8645 72.0221 74.188 68.8207C81.3524 66.0652 83.6151 59.0405 86.42 50.3325C86.8739 48.9235 87.3419 47.4705 87.8472 45.9843C90.7498 37.4473 92.4714 31.4714 92.9694 29.5506C93.6097 27.8432 94.0792 24.3004 90.8352 23.7881C86.7801 23.1479 84.8593 25.0687 84.4324 28.0566C83.5787 26.6338 80.7615 23.7881 76.3223 23.7881C70.7733 23.7881 65.6511 26.7761 63.7303 35.7399C63.3745 36.8782 62.4497 39.4535 61.596 40.6487C60.5289 42.1426 59.4618 42.5695 59.0349 42.1426C58.6081 41.7158 58.1812 41.2889 59.4618 38.301L59.4812 38.2557C60.7763 35.234 64.1336 27.4014 59.4618 24.4284C54.7664 21.4405 48.7905 27.4163 47.9368 28.4835V26.7761C48.008 25.5667 47.2966 23.2759 43.8818 23.7881C40.3667 24.3154 39.4568 26.7242 39.0067 27.9156C38.9103 28.171 38.8349 28.3705 38.7596 28.4835C38.6646 28.6259 38.4428 29.3707 38.1201 30.4545C36.9925 34.2413 34.6325 42.1667 32.1434 42.9963C31.5743 43.1386 30.6921 42.6549 31.7166 39.5815C32.741 36.5082 34.5622 30.9023 35.3448 28.4835C36.0561 26.7761 36.4971 23.4467 32.5702 23.7881ZM80.0121 29.2681C79.371 28.2263 76.9903 26.9458 74.4631 28.8412C71.0483 31.4023 69.9587 34.6291 69.5318 37.617C69.105 40.6049 70.8348 45.2749 75.5302 42.0735C80.2255 38.8722 81.7194 32.0426 80.0121 29.2681Z" fill="#6E97CB"/>
<path fill-rule="evenodd" clip-rule="evenodd" d="M165.214 26.8635C166.409 24.1317 169.554 23.591 170.977 23.6622C174.903 23.3207 174.463 26.6501 173.751 28.3575C172.969 30.7763 171.147 36.3823 170.123 39.4556C169.099 42.5289 169.981 43.0126 170.55 42.8704C173.039 42.0407 175.399 34.1153 176.526 30.3285L176.526 30.3285C176.849 29.2447 177.071 28.5 177.166 28.3575C177.241 28.2445 177.317 28.045 177.413 27.7896C177.863 26.5982 178.773 24.1894 182.288 23.6622C185.703 23.1499 186.414 25.4407 186.343 26.6501V28.3575C187.197 27.2904 193.173 21.3145 197.868 24.3024C202.54 27.2754 199.183 35.1081 197.888 38.1297L197.868 38.175C196.588 41.163 197.014 41.5898 197.441 42.0167C197.868 42.4435 198.935 42.0167 200.002 40.5227C200.856 39.3275 201.781 36.7522 202.137 35.6139C204.057 26.6501 209.18 23.6622 214.729 23.6622C219.168 23.6622 221.985 26.5078 222.839 27.9306C223.266 24.9427 225.186 23.0219 229.242 23.6622C232.486 24.1744 232.016 27.7172 231.376 29.4246C230.878 31.3454 229.156 37.3213 226.254 45.8583C225.748 47.3444 225.28 48.7974 224.826 50.2063L224.826 50.2065C224.276 51.9159 223.746 53.5604 223.196 55.1205C225.675 55.5647 228.397 55.0078 233.915 51.7721C234.768 51.2715 235.835 50.9184 236.262 51.5586C236.527 51.9557 236.068 52.7174 234.768 53.6929C234.685 53.755 234.56 53.8715 234.392 54.0281C233.067 55.2617 229.07 58.9828 222.019 58.2144C219.984 63.1012 217.385 66.8523 212.594 68.6947C204.271 71.8961 199.362 67.841 197.655 65.2799C195.959 62.7367 196.09 57.4416 199.921 54.8149C201.37 53.5517 205.902 51.1815 213.639 52.4124C214.148 52.4933 214.629 52.5829 215.084 52.6787C216.548 48.7547 217.678 45.203 218.143 43.2972C216.649 44.9335 212.552 47.9072 208.113 46.712C203.673 45.5168 202.421 41.8032 202.35 40.0958C198.082 48.6328 191.892 47.7791 189.758 45.8583C187.624 43.9375 189.331 36.8945 190.612 33.6931C191.892 30.4917 192.106 28.1441 191.465 27.7172C190.825 27.2904 189.971 27.2904 187.837 29.4246C185.703 31.5589 183.355 37.3213 181.861 42.2301C180.367 47.1388 177.379 47.3523 175.032 46.9254C173.154 46.5839 172.399 45.218 172.257 44.5778C171.973 45.2892 170.592 46.7547 167.348 46.9254C163.293 47.1388 162.013 43.2972 162.226 40.0958C162.44 36.8945 163.72 30.2783 165.214 26.8635ZM213.69 56.2661C211.387 55.8612 209.366 55.8068 207.624 55.9913C207.58 55.997 207.534 56.0029 207.487 56.0089C207.258 56.0381 207.002 56.0707 206.726 56.111C205.065 56.3796 203.69 56.8723 202.596 57.4739C201.872 57.9502 201.244 58.5891 200.834 59.4553C199.226 62.8489 202.855 64.9268 203.735 65.4303C203.778 65.4552 203.815 65.4762 203.844 65.4933C204.462 65.8581 208.73 67.352 211.741 60.798C212.413 59.3355 213.068 57.8014 213.69 56.2661ZM212.87 28.7152C215.398 26.8197 217.778 28.1003 218.419 29.142C220.127 31.9165 218.633 38.7461 213.938 41.9475C209.242 45.1489 207.512 40.4789 207.939 37.491C208.366 34.503 209.456 31.2763 212.87 28.7152Z" fill="#6E97CB"/>
<path fill-rule="evenodd" clip-rule="evenodd" d="M38.2666 1.19373C38.0007 1.00481 37.456 0.977061 36.6279 1.62686C32.0803 5.19502 24.864 3.1113 20.4504 1.59881C15.2245 -0.192024 7.45978 -2.48083 0.746896 7.16635C0.267404 7.85543 -0.40766 9.51404 0.320138 10.1543C0.858679 10.6281 2.35466 10.0627 3.0621 9.40332C4.32864 8.2228 8.35481 5.65587 14.9452 6.82082C14.6897 7.36743 14.4393 8.04362 14.1933 8.87384L3.5025 42.646C3.07565 44.2112 3.07565 47.2987 6.49044 47.128C10.6406 46.9205 11.3609 44.8972 12.3784 42.0389C12.4075 41.9574 12.4367 41.8752 12.4663 41.7923C13.32 39.402 19.2443 21.3947 22.5168 10.1544C22.6565 9.67447 22.7607 9.25841 22.823 8.89295C33.6955 11.027 37.1214 5.61411 37.4941 4.90437C37.9782 3.98251 39.0187 1.72796 38.2666 1.19373Z" fill="#6E97CB"/>
<path fill-rule="evenodd" clip-rule="evenodd" d="M176.137 1.19373C175.871 1.00481 175.327 0.977061 174.498 1.62686C169.951 5.19502 162.735 3.1113 158.321 1.59881C153.095 -0.192024 145.33 -2.48083 138.618 7.16635C138.138 7.85543 137.463 9.51404 138.191 10.1543C138.729 10.6281 140.225 10.0627 140.933 9.40332C142.199 8.22283 146.225 5.656 152.815 6.82074C152.56 7.36735 152.309 8.04354 152.063 8.87377L141.373 42.646C140.946 44.2111 140.946 47.2986 144.361 47.1279C148.511 46.9204 149.231 44.8971 150.249 42.0388C150.278 41.9573 150.307 41.8751 150.336 41.7923C151.19 39.4019 157.114 21.3947 160.387 10.1543C160.527 9.67439 160.631 9.25832 160.693 8.89285C171.566 11.0272 174.992 5.61412 175.365 4.90437C175.849 3.98251 176.889 1.72796 176.137 1.19373Z" fill="#6E97CB"/>
</svg>
