<svg width="1366" height="434" viewBox="0 0 1366 434" fill="none" xmlns="http://www.w3.org/2000/svg">
<path d="M222.365 190.329C227.148 180.762 236.76 179.699 240.967 180.364C249.604 181.727 249.823 189.001 248.276 194.316C238.088 229.306 217.05 301.148 214.392 308.589C211.07 317.89 209.077 324.534 195.79 325.198C185.16 325.73 185.16 316.119 186.488 311.246L222.365 190.329Z" fill="#516F96"/>
<path d="M287.622 187.194C295.358 182.423 302.49 190.104 303.393 192.774C308.187 202.559 303.166 209.711 296.941 213.302L278.562 223.481C275.302 225.574 270.262 228.269 267.887 228.576C265.511 228.883 261.343 226.821 264.289 220.866C268.12 213.125 279.087 192.459 287.622 187.194Z" fill="#516F96"/>
<path d="M277.069 262.197C280.893 251.349 288.201 250.02 295.008 251.567C305.475 253.946 305.638 260.868 304.309 265.519C313.61 255.553 325.569 246.252 336.864 251.567C345.899 255.819 347.272 266.184 346.829 270.834L352.809 263.526C364.768 248.692 379.384 245.588 390.014 254.225C400.481 262.729 390.382 286.561 387.193 294.534C384.536 301.178 383.533 307.208 386.028 308.039C388.522 308.871 391.309 307.157 394 303.389C398.902 296.527 402.863 285.783 403.803 283.904C404.467 282.575 405.796 280.582 407.789 281.246C409.782 281.911 409.06 284.343 408.617 285.451C397.159 309.815 388.898 319.685 379.384 323.32C369.253 327.191 358.788 323.32 358.124 311.361C357.459 299.403 362.11 294.088 366.761 278.142C370.481 265.386 368.028 262.696 364.768 262.862C354.639 263.375 344.673 279.253 340.022 297.856C339.21 301.106 337.229 308.895 335.372 314.465C332.936 321.774 326.735 323.767 320.755 323.767C314.552 323.767 310.125 322.622 308.797 319.116C307.107 314.658 310.275 307.492 310.953 305.382C316.932 286.779 319.041 272.176 319.59 266.848C320.091 261.979 314.112 259.986 306.967 270.834C297.889 284.616 292.35 302.724 290.357 309.368C288.364 316.012 283.55 323.767 271.09 323.985C260.448 324.171 260.903 315.348 262.453 310.697C265.553 298.96 273.264 272.995 277.069 262.197Z" fill="#516F96"/>
<path d="M852.654 238.746C859.895 238.746 863.71 239.544 865.942 250.705C867.271 257.349 860.627 260.491 853.983 260.671C817.553 261.654 798.723 263.495 790.825 263.236C780.954 262.913 772.265 263.992 769.329 253.251C766.454 242.732 774.922 241.463 779.775 241.463L852.654 238.746Z" fill="#516F96"/>
<path d="M541.793 230.856C543.123 218.897 550.751 214.911 556.41 214.911C563.054 214.911 568.369 218.897 568.369 228.863C568.369 238.829 563.054 243.996 556.41 245.473C550.431 246.801 540.39 243.479 541.793 230.856Z" fill="#516F96"/>
<path d="M972.643 230.856C973.973 218.897 981.601 214.911 987.26 214.911C993.904 214.911 999.219 218.897 999.219 228.863C999.219 238.829 993.904 243.996 987.26 245.473C981.281 246.801 971.24 243.479 972.643 230.856Z" fill="#516F96"/>
<path fill-rule="evenodd" clip-rule="evenodd" d="M551.695 252.037C547.266 251.816 537.478 253.499 533.757 262.003C529.107 272.633 525.12 293.229 524.456 303.195C523.792 313.16 527.778 325.119 540.401 324.455C550.5 323.923 554.796 319.361 555.682 317.147C556.125 319.14 558.472 323.392 564.319 324.455C571.627 325.784 580.928 325.119 585.579 309.839C590.23 294.558 597.538 276.62 604.182 269.976C610.826 263.332 613.483 263.332 615.476 264.661C617.469 265.989 616.805 273.298 612.819 283.263C608.832 293.229 603.517 315.154 610.161 321.133C616.805 327.112 636.072 329.77 649.36 303.195C649.581 308.51 653.479 320.07 667.298 323.791C681.117 327.511 693.873 318.254 698.524 313.16C696.088 323.126 688.691 347.974 678.592 367.64C665.969 392.222 655.016 383.35 654.01 382.256C652.611 380.734 646.702 373.619 655.339 360.996C662.249 350.897 658.218 343.943 655.339 341.729C652.239 337.964 644.177 332.693 636.736 341.729C627.435 353.023 629.428 373.619 634.743 381.592C640.058 389.564 655.339 402.187 681.25 392.222C703.552 383.644 710.596 361.776 719.327 334.669C720.74 330.283 722.197 325.759 723.77 321.133C732.806 294.558 738.165 275.955 739.715 269.976C741.708 264.661 743.17 253.632 733.072 252.037C720.448 250.044 714.469 256.024 713.14 265.325C710.483 260.896 701.713 252.037 687.894 252.037C670.62 252.037 654.675 261.339 648.695 289.243C647.588 292.786 644.709 300.803 642.051 304.524C638.73 309.174 635.408 310.503 634.079 309.174C632.75 307.845 631.421 306.517 635.408 297.215L635.468 297.074C639.5 287.668 649.951 263.285 635.408 254.031C620.791 244.729 602.189 263.332 599.531 266.654V261.339C599.753 257.574 597.538 250.443 586.908 252.037C575.966 253.679 573.133 261.177 571.732 264.886C571.432 265.681 571.197 266.302 570.963 266.654C570.667 267.097 569.977 269.416 568.972 272.789C565.462 284.578 558.115 309.249 550.367 311.832C548.595 312.275 545.849 310.769 549.038 301.202C552.227 291.635 557.897 274.183 560.333 266.654C562.547 261.339 563.92 250.974 551.695 252.037ZM699.383 269.096C697.387 265.853 689.976 261.867 682.109 267.767C671.479 275.74 668.087 285.785 666.758 295.086C665.429 304.387 670.814 318.925 685.431 308.959C700.047 298.993 704.697 277.733 699.383 269.096Z" fill="#516F96"/>
<path fill-rule="evenodd" clip-rule="evenodd" d="M964.607 261.611C968.328 253.107 978.117 251.424 982.546 251.645C994.77 250.582 993.397 260.947 991.183 266.262C988.747 273.791 983.077 291.242 979.888 300.81C976.699 310.377 979.446 311.883 981.217 311.44C988.966 308.857 996.312 284.186 999.822 272.397C1000.83 269.024 1001.52 266.705 1001.81 266.262C1002.05 265.91 1002.28 265.289 1002.58 264.494C1003.98 260.785 1006.82 253.287 1017.76 251.645C1028.39 250.051 1030.6 257.182 1030.38 260.947V266.262C1033.04 262.94 1051.64 244.337 1066.26 253.639C1080.8 262.893 1070.35 287.276 1066.32 296.682L1066.26 296.823C1062.27 306.125 1063.6 307.453 1064.93 308.782C1066.26 310.111 1069.58 308.782 1072.9 304.131C1075.56 300.411 1078.44 292.394 1079.55 288.851C1085.52 260.947 1101.47 251.645 1118.74 251.645C1132.56 251.645 1141.33 260.504 1143.99 264.933C1145.32 255.632 1151.3 249.652 1163.92 251.645C1174.02 253.24 1172.56 264.269 1170.57 269.584C1169.02 275.563 1163.66 294.166 1154.62 320.741C1153.05 325.367 1151.59 329.891 1150.18 334.277L1150.18 334.277C1148.46 339.598 1146.81 344.717 1145.1 349.574C1152.82 350.956 1161.29 349.222 1178.47 339.15C1181.13 337.592 1184.45 336.493 1185.78 338.486C1186.6 339.722 1185.17 342.093 1181.12 345.13C1180.87 345.323 1180.48 345.686 1179.95 346.173C1175.83 350.013 1163.39 361.597 1141.44 359.205C1135.1 374.417 1127.01 386.094 1112.1 391.83C1086.19 401.795 1070.91 389.172 1065.59 381.2C1060.32 373.284 1060.72 356.804 1072.64 348.626C1077.15 344.694 1091.26 337.311 1115.35 341.143C1116.94 341.396 1118.43 341.674 1119.85 341.973C1124.41 329.757 1127.92 318.701 1129.37 312.768C1124.72 317.862 1111.97 327.119 1098.15 323.398C1084.33 319.678 1080.43 308.118 1080.21 302.803C1066.92 329.378 1047.66 326.72 1041.01 320.741C1034.37 314.762 1039.68 292.837 1043.67 282.871C1047.66 272.906 1048.32 265.597 1046.33 264.269C1044.33 262.94 1041.68 262.94 1035.03 269.584C1028.39 276.227 1021.08 294.166 1016.43 309.446C1011.78 324.727 1002.48 325.392 995.169 324.063C989.323 323 986.975 318.748 986.532 316.755C985.646 318.969 981.35 323.531 971.251 324.063C958.628 324.727 954.642 312.768 955.306 302.803C955.971 292.837 959.957 272.241 964.607 261.611ZM1115.51 353.14C1108.34 351.88 1102.05 351.71 1096.64 352.284C1096.49 352.302 1096.35 352.32 1096.2 352.339C1095.48 352.431 1094.68 352.533 1093.82 352.659C1088.66 353.495 1084.38 355.027 1080.98 356.896C1078.72 358.379 1076.77 360.369 1075.49 363.068C1070.49 373.632 1081.78 380.1 1084.52 381.668C1084.66 381.745 1084.77 381.811 1084.86 381.864C1086.78 382.999 1100.07 387.65 1109.44 367.248C1111.53 362.695 1113.58 357.919 1115.51 353.14ZM1112.96 267.375C1120.83 261.475 1128.24 265.461 1130.23 268.704C1135.55 277.341 1130.9 298.601 1116.28 308.567C1101.66 318.533 1096.28 303.995 1097.61 294.694C1098.94 285.393 1102.33 275.348 1112.96 267.375Z" fill="#516F96"/>
<path fill-rule="evenodd" clip-rule="evenodd" d="M569.43 181.702C568.602 181.114 566.907 181.028 564.329 183.051C550.173 194.158 527.708 187.672 513.969 182.963C497.701 177.389 473.53 170.264 452.633 200.295C451.141 202.44 449.039 207.603 451.305 209.596C452.981 211.071 457.638 209.311 459.84 207.258C463.783 203.584 476.315 195.593 496.83 199.219C496.034 200.92 495.255 203.025 494.489 205.61L461.209 310.741C459.88 315.613 459.88 325.225 470.511 324.693C483.43 324.047 485.672 317.749 488.84 308.851C488.93 308.597 489.021 308.342 489.113 308.084C491.771 300.643 510.213 244.587 520.4 209.596C520.835 208.102 521.159 206.807 521.353 205.669C555.2 212.314 565.865 195.463 567.025 193.253C568.532 190.384 571.771 183.365 569.43 181.702Z" fill="#516F96"/>
<path fill-rule="evenodd" clip-rule="evenodd" d="M998.62 181.702C997.792 181.114 996.097 181.028 993.519 183.051C979.362 194.158 956.898 187.672 943.159 182.963C926.891 177.389 902.72 170.264 881.823 200.295C880.33 202.44 878.229 207.603 880.494 209.596C882.171 211.071 886.828 209.311 889.03 207.258C892.973 203.584 905.505 195.593 926.019 199.219C925.224 200.92 924.445 203.025 923.679 205.61L890.399 310.741C889.07 315.613 889.07 325.225 899.7 324.693C912.619 324.047 914.862 317.749 918.029 308.851C918.12 308.597 918.211 308.342 918.303 308.084C920.96 300.643 939.402 244.587 949.59 209.596C950.024 208.102 950.349 206.807 950.543 205.669C984.39 212.314 995.055 195.463 996.215 193.253C997.722 190.384 1000.96 183.365 998.62 181.702Z" fill="#516F96"/>
<path d="M216.48 186.807C221.264 177.24 230.875 176.177 235.083 176.842C243.719 178.205 243.938 185.479 242.391 190.794C232.204 225.784 211.165 297.626 208.507 305.067C205.185 314.368 203.192 321.012 189.905 321.676C179.275 322.208 179.275 312.597 180.603 307.725L216.48 186.807Z" fill="#6E97CB"/>
<path d="M281.737 183.672C289.473 178.901 296.606 186.582 297.508 189.252C302.302 199.037 297.281 206.189 291.057 209.78L272.677 219.959C269.417 222.052 264.378 224.747 262.002 225.054C259.626 225.361 255.458 223.299 258.404 217.344C262.235 209.603 273.202 188.937 281.737 183.672Z" fill="#6E97CB"/>
<path d="M271.185 258.675C275.008 247.827 282.316 246.498 289.123 248.045C299.59 250.424 299.753 257.347 298.424 261.997C307.726 252.031 319.684 242.73 330.979 248.045C340.014 252.297 341.387 262.662 340.945 267.312L346.924 260.004C358.883 245.17 373.499 242.066 384.129 250.703C394.596 259.207 384.498 283.039 381.309 291.012C378.651 297.656 377.649 303.686 380.143 304.518C382.637 305.349 385.424 303.635 388.116 299.867C393.017 293.005 396.979 282.261 397.918 280.382C398.583 279.053 399.911 277.06 401.904 277.724C403.898 278.389 403.175 280.821 402.732 281.929C391.274 306.293 383.014 316.163 373.499 319.798C363.368 323.669 352.903 319.798 352.239 307.839C351.575 295.881 356.225 290.566 360.876 274.62C364.597 261.864 362.143 259.174 358.883 259.34C348.754 259.853 338.788 275.731 334.138 294.334C333.325 297.584 331.344 305.373 329.487 310.943C327.051 318.252 320.85 320.245 314.871 320.245C308.667 320.245 304.24 319.1 302.912 315.594C301.223 311.136 304.39 303.97 305.068 301.86C311.047 283.257 313.156 268.654 313.705 263.326C314.206 258.457 308.227 256.464 301.082 267.312C292.004 281.094 286.465 299.202 284.472 305.846C282.479 312.49 277.665 320.245 265.205 320.463C254.563 320.649 255.018 311.826 256.568 307.175C259.669 295.438 267.379 269.473 271.185 258.675Z" fill="#6E97CB"/>
<path d="M846.769 233.224C854.011 233.224 857.825 234.022 860.057 245.183C861.386 251.827 854.742 254.969 848.098 255.149C811.668 256.132 792.838 257.973 784.941 257.714C775.069 257.391 766.38 258.47 763.444 247.729C760.569 237.21 769.037 235.941 773.89 235.941L846.769 233.224Z" fill="#6E97CB"/>
<path d="M535.909 225.334C537.238 213.375 544.866 209.389 550.525 209.389C557.169 209.389 562.484 213.375 562.484 223.341C562.484 233.307 557.169 238.474 550.525 239.951C544.546 241.279 534.505 237.958 535.909 225.334Z" fill="#6E97CB"/>
<path d="M966.759 225.334C968.089 213.375 975.717 209.389 981.375 209.389C988.02 209.389 993.334 213.375 993.334 223.341C993.334 233.307 988.019 238.474 981.375 239.951C975.396 241.279 965.355 237.958 966.759 225.334Z" fill="#6E97CB"/>
<path fill-rule="evenodd" clip-rule="evenodd" d="M545.811 246.516C541.382 246.294 531.593 247.977 527.872 256.481C523.222 267.111 519.236 287.707 518.571 297.673C517.907 307.638 521.893 319.597 534.516 318.933C544.615 318.401 548.911 313.839 549.797 311.625C550.24 313.618 552.588 317.87 558.434 318.933C565.742 320.262 575.044 319.597 579.694 304.317C584.345 289.036 591.653 271.098 598.297 264.454C604.941 257.81 607.598 257.81 609.591 259.139C611.585 260.468 610.92 267.776 606.934 277.741C602.948 287.707 597.633 309.632 604.276 315.611C610.92 321.59 630.187 324.248 643.475 297.673C643.696 302.988 647.594 314.548 661.413 318.269C675.232 321.989 687.988 312.732 692.639 307.638C690.203 317.604 682.806 342.452 672.708 362.118C660.084 386.7 649.131 377.828 648.126 376.734C646.727 375.212 640.817 368.097 649.454 355.474C656.364 345.375 652.333 338.421 649.454 336.207C646.354 332.442 638.293 327.171 630.852 336.207C621.55 347.501 623.543 368.097 628.859 376.07C634.174 384.042 649.454 396.665 675.365 386.7C697.667 378.122 704.711 356.254 713.443 329.147C714.855 324.761 716.312 320.237 717.885 315.611C726.921 289.036 732.28 270.433 733.831 264.454C735.824 259.139 737.285 248.11 727.187 246.516C714.564 244.522 708.584 250.502 707.255 259.803C704.598 255.374 695.828 246.516 682.009 246.516C664.735 246.516 648.79 255.817 642.81 283.721C641.703 287.264 638.824 295.281 636.167 299.002C632.845 303.652 629.523 304.981 628.194 303.652C626.865 302.323 625.537 300.995 629.523 291.693L629.583 291.552C633.615 282.146 644.066 257.763 629.523 248.509C614.907 239.207 596.304 257.81 593.646 261.132V255.817C593.868 252.052 591.653 244.921 581.023 246.516C570.081 248.157 567.248 255.655 565.847 259.364C565.547 260.159 565.313 260.78 565.078 261.132C564.782 261.575 564.092 263.894 563.087 267.268C559.577 279.056 552.231 303.727 544.482 306.31C542.711 306.753 539.964 305.247 543.153 295.68C546.343 286.113 552.012 268.662 554.448 261.132C556.662 255.817 558.035 245.453 545.811 246.516ZM693.498 263.574C691.502 260.331 684.091 256.345 676.224 262.245C665.594 270.218 662.202 280.263 660.873 289.564C659.545 298.865 664.929 313.403 679.546 303.437C694.162 293.471 698.813 272.211 693.498 263.574Z" fill="#6E97CB"/>
<path fill-rule="evenodd" clip-rule="evenodd" d="M958.723 256.089C962.444 247.585 972.232 245.902 976.662 246.123C988.886 245.06 987.513 255.425 985.299 260.74C982.863 268.269 977.193 285.72 974.004 295.288C970.815 304.855 973.562 306.361 975.333 305.918C983.082 303.335 990.428 278.664 993.938 266.875C994.943 263.502 995.633 261.183 995.929 260.74C996.164 260.388 996.398 259.767 996.698 258.972C998.099 255.263 1000.93 247.765 1011.87 246.123C1022.5 244.529 1024.72 251.66 1024.5 255.425V260.74C1027.15 257.418 1045.76 238.815 1060.37 248.117C1074.92 257.371 1064.47 281.754 1060.43 291.16L1060.37 291.301C1056.39 300.603 1057.72 301.931 1059.05 303.26C1060.37 304.589 1063.7 303.26 1067.02 298.609C1069.68 294.889 1072.55 286.872 1073.66 283.329C1079.64 255.425 1095.59 246.123 1112.86 246.123C1126.68 246.123 1135.45 254.982 1138.11 259.411C1139.44 250.11 1145.41 244.13 1158.04 246.123C1168.14 247.718 1166.67 258.747 1164.68 264.062C1163.13 270.041 1157.77 288.644 1148.74 315.219C1147.16 319.845 1145.71 324.369 1144.29 328.755L1144.29 328.755C1142.58 334.076 1140.93 339.195 1139.22 344.052C1146.93 345.434 1155.41 343.7 1172.58 333.628C1175.24 332.07 1178.56 330.971 1179.89 332.964C1180.72 334.2 1179.29 336.571 1175.24 339.608C1174.98 339.801 1174.59 340.164 1174.07 340.651C1169.94 344.491 1157.5 356.074 1135.55 353.683C1129.22 368.895 1121.13 380.572 1106.22 386.308C1080.31 396.273 1065.02 383.65 1059.71 375.678C1054.43 367.762 1054.84 351.285 1066.76 343.106C1071.26 339.175 1085.37 331.788 1109.47 335.621C1111.05 335.874 1112.55 336.152 1113.97 336.451C1118.52 324.235 1122.04 313.179 1123.49 307.246C1118.84 312.34 1106.08 321.597 1092.26 317.876C1078.44 314.156 1074.55 302.596 1074.33 297.281C1061.04 323.856 1041.77 321.198 1035.13 315.219C1028.48 309.24 1033.8 287.315 1037.78 277.349C1041.77 267.384 1042.44 260.075 1040.44 258.747C1038.45 257.418 1035.79 257.418 1029.15 264.062C1022.5 270.705 1015.2 288.644 1010.55 303.925C1005.89 319.205 996.593 319.87 989.285 318.541C983.439 317.478 981.091 313.226 980.648 311.233C979.762 313.447 975.466 318.009 965.367 318.541C952.744 319.205 948.758 307.246 949.422 297.281C950.086 287.315 954.073 266.719 958.723 256.089ZM1109.63 347.618C1102.46 346.358 1096.17 346.188 1090.75 346.761C1090.61 346.78 1090.47 346.798 1090.32 346.817C1089.6 346.909 1088.79 347.011 1087.93 347.138C1082.77 347.974 1078.5 349.504 1075.1 351.372C1072.84 352.855 1070.88 354.846 1069.61 357.546C1064.6 368.11 1075.9 374.578 1078.64 376.146C1078.77 376.223 1078.89 376.289 1078.98 376.342C1080.9 377.477 1094.19 382.128 1103.56 361.726C1105.65 357.173 1107.69 352.397 1109.63 347.618ZM1107.07 261.853C1114.94 255.953 1122.35 259.939 1124.35 263.182C1129.66 271.819 1125.01 293.079 1110.4 303.045C1095.78 313.011 1090.4 298.473 1091.72 289.172C1093.05 279.871 1096.44 269.826 1107.07 261.853Z" fill="#6E97CB"/>
<path fill-rule="evenodd" clip-rule="evenodd" d="M563.546 176.18C562.718 175.592 561.023 175.506 558.445 177.529C544.288 188.636 521.824 182.15 508.085 177.441C491.817 171.867 467.646 164.742 446.749 194.773C445.256 196.918 443.155 202.081 445.42 204.074C447.097 205.549 451.754 203.789 453.956 201.736C457.899 198.062 470.431 190.071 490.946 193.697C490.15 195.399 489.371 197.503 488.605 200.088L455.325 305.219C453.996 310.091 453.996 319.703 464.626 319.171C477.545 318.525 479.788 312.227 482.955 303.329C483.046 303.075 483.137 302.82 483.229 302.562C485.886 295.121 504.328 239.065 514.516 204.074C514.951 202.58 515.275 201.285 515.469 200.147C549.316 206.792 559.981 189.941 561.141 187.731C562.648 184.862 565.887 177.843 563.546 176.18Z" fill="#6E97CB"/>
<path fill-rule="evenodd" clip-rule="evenodd" d="M992.735 176.18C991.907 175.592 990.212 175.506 987.634 177.529C973.477 188.636 951.013 182.15 937.274 177.441C921.006 171.867 896.835 164.742 875.938 194.773C874.445 196.918 872.344 202.081 874.61 204.074C876.286 205.549 880.943 203.789 883.145 201.736C887.088 198.062 899.62 190.071 920.135 193.697C919.339 195.399 918.56 197.504 917.794 200.088L884.514 305.219C883.185 310.091 883.185 319.703 893.815 319.171C906.735 318.525 908.977 312.227 912.144 303.329C912.235 303.075 912.326 302.82 912.418 302.562C915.076 295.121 933.518 239.065 943.705 204.074C944.14 202.58 944.464 201.285 944.658 200.147C978.505 206.792 989.17 189.941 990.33 187.731C991.837 184.862 995.076 177.843 992.735 176.18Z" fill="#6E97CB"/>
<path fill-rule="evenodd" clip-rule="evenodd" d="M796.338 37.1009C793.676 36.6806 787.595 37.3531 784.568 43.406L769.474 94.267C768.634 97.3495 768.634 103.43 775.359 103.094C783.533 102.685 784.952 98.7006 786.956 93.0712C787.013 92.9107 787.07 92.7488 787.129 92.5857C788.564 88.5666 792.933 73.5394 798.191 55.4545C799.091 52.3555 800.019 49.1667 800.961 45.928C801.94 42.5653 801.802 37.9637 796.338 37.1009ZM771.576 108.979C767.995 108.979 763.169 111.501 762.328 119.067C761.44 127.053 767.793 129.155 771.576 128.314C775.779 127.38 779.142 124.111 779.142 117.806C779.142 111.501 775.779 108.979 771.576 108.979Z" fill="#9EB6D5"/>
<path fill-rule="evenodd" clip-rule="evenodd" d="M835.811 37.1009C833.149 36.6806 827.068 37.3531 824.042 43.406L808.948 94.267C808.107 97.3495 808.107 103.43 814.833 103.094C823.006 102.685 824.425 98.7006 826.429 93.0712C826.486 92.9107 826.544 92.7488 826.602 92.5857C828.037 88.5666 832.406 73.5394 837.664 55.4545C838.565 52.3555 839.492 49.1667 840.435 45.928C841.414 42.5653 841.276 37.9637 835.811 37.1009ZM811.172 108.979C807.592 108.979 802.766 111.501 801.925 119.067C801.037 127.053 807.389 129.155 811.172 128.314C815.376 127.38 818.738 124.111 818.738 117.806C818.738 111.501 815.376 108.979 811.172 108.979Z" fill="#9EB6D5"/>
<path fill-rule="evenodd" clip-rule="evenodd" d="M568.552 43.406C571.579 37.3531 577.66 36.6806 580.322 37.1009C585.786 37.9637 585.925 42.5653 584.946 45.928C582.29 55.0491 578.469 68.1279 574.776 80.6841C575.247 80.5401 575.727 80.3967 576.217 80.2544C584.345 77.8961 590.967 77.7684 596.304 78.8243C600.259 65.3556 604.75 50.2191 606.383 45.0874C608.737 37.6894 615.21 36.9608 618.152 37.5212C624.457 38.7222 623.572 45.0874 622.776 47.6094C619.701 57.3448 614.776 73.7025 611.004 86.5723C613.565 89.1182 614.965 91.4712 615.476 92.3298C615.543 92.4412 615.594 92.5275 615.631 92.5857C616.09 93.3097 616.051 93.8467 615.631 94.267C615.21 94.6873 614.111 94.6874 613.213 94.1434C611.939 93.3721 610.674 92.6647 609.415 92.0212C607.757 97.7459 606.486 102.26 605.962 104.355C603.861 112.762 602.179 119.788 605.962 120.328C608.905 120.748 611.847 113.182 614.789 105.616C618.152 85.4399 630.342 82.0772 637.908 81.6568C646.057 81.2041 654.355 86.1206 650.518 97.6297C647.316 107.237 636.361 109.982 630.726 110.948C630.613 118.743 633.573 123.995 641.271 121.589C645.234 120.35 649.295 114.879 652.507 109.13C653.046 104.169 654.226 98.9987 655.477 94.6873C659.54 80.676 667.835 52.4853 670.189 45.0874C672.542 37.6894 679.016 36.9608 681.958 37.5213C688.263 38.7222 687.378 45.0874 686.582 47.6094C681.537 63.5823 671.511 97.3811 669.768 104.355C667.666 112.762 665.985 119.788 669.768 120.328C672.499 120.718 675.229 114.23 677.96 107.247C678.564 102.879 679.604 98.4554 680.696 94.6875C682.632 88.0119 684.594 80.6937 686.372 74.0605L686.373 74.058L686.373 74.0569L686.374 74.0566C688.327 66.7692 690.059 60.309 691.291 56.4364C693.645 49.0385 700.118 48.3099 703.061 48.8703C709.365 50.0713 708.48 56.4364 707.684 58.9585C702.64 74.9313 696.731 97.3813 694.988 104.355C692.886 112.762 691.205 119.788 694.988 120.328C697.768 120.725 700.547 113.995 703.327 106.87C703.362 106.191 703.413 105.493 703.481 104.775C705.202 86.7009 720.295 82.0772 728.281 82.4975C736.257 82.9173 740.471 89.223 740.471 93.8467C743.834 95.1918 744.014 100.572 743.413 104.776C742.693 109.815 740.432 116.705 734.516 122.012C736.142 123.042 738.732 123.201 741.311 120.793C746.48 115.969 749.027 109.609 750.305 106.416C750.586 105.715 750.806 105.166 750.979 104.821C751.103 104.571 751.219 104.324 751.33 104.084L751.332 104.082L751.334 104.077L751.334 104.077C751.974 102.704 752.492 101.592 753.921 101.878C755.602 102.215 755.297 103.98 754.341 106.082C752.24 110.705 748.457 118.815 742.992 123.316C738.896 126.689 734.51 125.72 731.841 124.118C731.638 124.258 731.433 124.396 731.223 124.531C723.207 129.742 706.54 130.966 703.691 114.271C699.912 121.789 694.448 130.8 683.639 127.474C679.456 126.187 677.757 121.764 677.466 116.216C673.723 123.235 668.307 130.517 658.419 127.474C654.29 126.203 652.581 121.877 652.258 116.429C648.117 122.428 643.304 126.112 638.328 127.053C622.776 129.996 615.63 119.768 614.789 114.023C611.006 121.589 605.542 130.837 594.613 127.474C585.366 124.628 588.258 106.457 591.671 94.6873C592.299 92.5229 593.027 90.02 593.819 87.3077C588.159 86.8001 582.379 87.5801 576.217 89.6433C575.629 89.8402 575.016 90.0525 574.379 90.2726C573.519 90.5702 572.616 90.8821 571.68 91.1902C567.666 104.774 564.299 116.011 563.508 118.226C563.45 118.39 563.392 118.551 563.335 118.712C561.331 124.341 559.913 128.326 551.739 128.735C545.013 129.071 545.013 122.99 545.854 119.908L553.913 92.7448C549.652 91.5057 545.495 88.633 541.877 83.0347C541.339 82.2019 541.372 81.3471 541.932 80.8051C542.343 80.4076 543.193 80.3847 544.112 80.954C548.82 83.873 552.591 85.0804 556.138 85.2475L568.552 43.406ZM630.558 106.764C631.656 98.7196 636.324 89.2127 641.691 88.446C647.996 87.5453 647.576 96.4325 644.213 99.7952L644.084 99.9245C641.517 102.493 639.955 104.056 630.558 106.764ZM727.476 92.2357C731.959 89.7137 735.042 90.9747 736.723 94.3374C734.201 95.1781 729.97 101.063 728.737 105.687C727.055 111.992 727.476 117.456 728.737 121.239C726.635 122.08 719.874 122.176 719.489 114.093C719.129 106.527 721.497 95.5984 727.476 92.2357ZM732.099 107.368C733.361 102.324 736.723 97.7001 738.404 98.1205C741.347 98.9612 738.7 108.31 737.564 111.151C736.723 113.253 734.621 117.456 732.099 119.558C731.259 117.456 730.838 112.412 732.099 107.368Z" fill="#9EB6D5"/>
</svg>
